LisuNew-Italic.ufo
<glyph name="quotedbl" format="2">
  <advance width="856"/>
  <unicode hex="0022"/>
  <outline>
    <contour>
      <point x="895" y="1200" type="qcurve"/>
      <point x="895" y="1135"/>
      <point x="813" y="967" type="qcurve"/>
      <point x="725" y="786"/>
      <point x="674" y="786" type="qcurve"/>
      <point x="676" y="795"/>
      <point x="676" y="825" type="qcurve"/>
      <point x="676" y="903"/>
      <point x="705" y="1016" type="qcurve"/>
      <point x="743" y="1165"/>
      <point x="748" y="1204" type="qcurve"/>
      <point x="768" y="1235" type="line"/>
      <point x="782" y="1241"/>
      <point x="797" y="1241" type="qcurve"/>
      <point x="895" y="1241"/>
    </contour>
    <contour>
      <point x="549" y="1214" type="qcurve"/>
      <point x="549" y="1159"/>
      <point x="496" y="1010" type="qcurve"/>
      <point x="440" y="852"/>
      <point x="367" y="815"/>
      <point x="338" y="805" type="qcurve"/>
      <point x="330" y="819"/>
      <point x="330" y="844" type="qcurve"/>
      <point x="330" y="899"/>
      <point x="356" y="1051" type="qcurve"/>
      <point x="375" y="1153"/>
      <point x="379" y="1169" type="qcurve"/>
      <point x="403" y="1255"/>
      <point x="449" y="1255" type="qcurve"/>
      <point x="549" y="1255"/>
    </contour>
  </outline>
</glyph>
<glyph name="numbersign" format="2">
  <advance width="1327"/>
  <unicode hex="0023"/>
  <outline>
    <contour>
      <point x="1382" y="864" type="qcurve"/>
      <point x="1382" y="801"/>
      <point x="1225" y="780" type="qcurve"/>
      <point x="1124" y="772"/>
      <point x="1024" y="766" type="qcurve"/>
      <point x="948" y="645"/>
      <point x="901" y="559" type="qcurve"/>
      <point x="1147" y="590"/>
      <point x="1210" y="590" type="qcurve"/>
      <point x="1219" y="590"/>
      <point x="1219" y="573" type="qcurve"/>
      <point x="1219" y="524"/>
      <point x="1151" y="506" type="qcurve"/>
      <point x="1096" y="500"/>
      <point x="1040" y="494" type="qcurve"/>
      <point x="932" y="479"/>
      <point x="852" y="475" type="qcurve"/>
      <point x="819" y="410"/>
      <point x="680" y="162"/>
      <point x="598" y="162" type="qcurve"/>
      <point x="569" y="162"/>
      <point x="569" y="176" type="qcurve"/>
      <point x="569" y="211"/>
      <point x="752" y="471" type="qcurve"/>
      <point x="494" y="457" type="line"/>
      <point x="385" y="262"/>
      <point x="381" y="258" type="qcurve"/>
      <point x="299" y="139"/>
      <point x="207" y="139" type="qcurve"/>
      <point x="199" y="139"/>
      <point x="195" y="145" type="qcurve"/>
      <point x="195" y="182"/>
      <point x="395" y="457" type="qcurve"/>
      <point x="203" y="446"/>
      <point x="115" y="446" type="qcurve"/>
      <point x="61" y="446"/>
      <point x="45" y="459" type="qcurve"/>
      <point x="55" y="504"/>
      <point x="109" y="539" type="qcurve"/>
      <point x="442" y="539" type="line"/>
      <point x="565" y="748" type="line"/>
      <point x="518" y="748"/>
      <point x="326" y="737"/>
      <point x="279" y="737" type="qcurve"/>
      <point x="227" y="737"/>
      <point x="211" y="748" type="qcurve"/>
      <point x="225" y="827"/>
      <point x="295" y="827" type="qcurve"/>
      <point x="334" y="827"/>
      <point x="492" y="819"/>
      <point x="530" y="819" type="qcurve"/>
      <point x="557" y="819"/>
      <point x="600" y="821" type="qcurve"/>
      <point x="668" y="983"/>
      <point x="674" y="991" type="qcurve"/>
      <point x="729" y="1085"/>
      <point x="817" y="1085" type="qcurve"/>
      <point x="803" y="1042"/>
      <point x="772" y="956" type="qcurve"/>
      <point x="750" y="909"/>
      <point x="700" y="821" type="qcurve"/>
      <point x="799" y="821"/>
      <point x="961" y="836" type="qcurve"/>
      <point x="1001" y="924"/>
      <point x="1042" y="1014" type="qcurve"/>
      <point x="1106" y="1122"/>
      <point x="1184" y="1124" type="qcurve"/>
      <point x="1188" y="1120" type="line"/>
      <point x="1184" y="1057"/>
      <point x="1055" y="840" type="qcurve"/>
      <point x="1305" y="879"/>
      <point x="1376" y="879" type="qcurve"/>
      <point x="1382" y="879"/>
    </contour>
    <contour>
      <point x="920" y="760" type="qcurve"/>
      <point x="764" y="748"/>
      <point x="653" y="748" type="qcurve"/>
      <point x="633" y="715"/>
      <point x="543" y="545" type="qcurve"/>
      <point x="684" y="547"/>
      <point x="801" y="555" type="qcurve"/>
      <point x="840" y="614"/>
    </contour>
  </outline>
</glyph>
<glyph name="dollar" format="2">
  <advance width="881"/>
  <unicode hex="0024"/>
  <outline>
    <contour>
      <point x="868" y="965" type="qcurve"/>
      <point x="868" y="903"/>
      <point x="754" y="903" type="qcurve"/>
      <point x="731" y="903"/>
      <point x="684" y="907" type="qcurve"/>
      <point x="672" y="868"/>
      <point x="659" y="831" type="qcurve"/>
      <point x="639" y="793"/>
      <point x="598" y="793" type="qcurve"/>
      <point x="575" y="793"/>
      <point x="553" y="778" type="qcurve"/>
      <point x="528" y="786" type="line"/>
      <point x="530" y="815"/>
      <point x="565" y="922" type="qcurve"/>
      <point x="403" y="840"/>
      <point x="403" y="776" type="qcurve"/>
      <point x="403" y="719"/>
      <point x="498" y="674" type="qcurve"/>
      <point x="557" y="647"/>
      <point x="674" y="590" type="qcurve"/>
      <point x="770" y="537"/>
      <point x="770" y="453" type="qcurve"/>
      <point x="770" y="262"/>
      <point x="430" y="199" type="qcurve"/>
      <point x="412" y="92"/>
      <point x="401" y="72" type="qcurve"/>
      <point x="373" y="10"/>
      <point x="297" y="10" type="qcurve"/>
      <point x="270" y="10"/>
      <point x="270" y="25" type="qcurve"/>
      <point x="270" y="47"/>
      <point x="369" y="201" type="qcurve"/>
      <point x="299" y="199"/>
      <point x="203" y="188" type="qcurve"/>
      <point x="170" y="201" type="line"/>
      <point x="162" y="211"/>
      <point x="162" y="215" type="qcurve"/>
      <point x="162" y="291"/>
      <point x="240" y="307" type="qcurve"/>
      <point x="379" y="315" type="line"/>
      <point x="399" y="377"/>
      <point x="420" y="399" type="qcurve"/>
      <point x="449" y="430"/>
      <point x="504" y="430" type="qcurve"/>
      <point x="520" y="430"/>
      <point x="520" y="416" type="qcurve"/>
      <point x="520" y="397"/>
      <point x="475" y="303" type="qcurve"/>
      <point x="639" y="379"/>
      <point x="639" y="444" type="qcurve"/>
      <point x="639" y="518"/>
      <point x="541" y="561" type="qcurve"/>
      <point x="479" y="584"/>
      <point x="360" y="635" type="qcurve"/>
      <point x="262" y="680"/>
      <point x="262" y="760" type="qcurve"/>
      <point x="262" y="864"/>
      <point x="391" y="936" type="qcurve"/>
      <point x="485" y="989"/>
      <point x="612" y="1010" type="qcurve"/>
      <point x="625" y="1087"/>
      <point x="629" y="1098" type="qcurve"/>
      <point x="647" y="1147"/>
      <point x="694" y="1147" type="qcurve"/>
      <point x="748" y="1147"/>
      <point x="748" y="1124" type="qcurve"/>
      <point x="748" y="1120"/>
      <point x="709" y="1006" type="qcurve"/>
      <point x="778" y="1010"/>
      <point x="797" y="1010" type="qcurve"/>
      <point x="868" y="1010"/>
    </contour>
  </outline>
</glyph>
<glyph name="ampersand" format="2">
  <advance width="973"/>
  <unicode hex="0026"/>
  <outline>
    <contour>
      <point x="971" y="1083" type="qcurve"/>
      <point x="971" y="1010"/>
      <point x="860" y="924"/>
      <point x="784" y="924" type="qcurve"/>
      <point x="758" y="924"/>
      <point x="756" y="938" type="qcurve"/>
      <point x="770" y="958"/>
      <point x="809" y="1006" type="qcurve"/>
      <point x="760" y="1044"/>
      <point x="709" y="1044" type="qcurve"/>
      <point x="637" y="1044"/>
      <point x="500" y="932"/>
      <point x="500" y="862" type="qcurve"/>
      <point x="500" y="776"/>
      <point x="571" y="739" type="qcurve"/>
      <point x="608" y="719"/>
      <point x="705" y="702" type="qcurve"/>
      <point x="776" y="690"/>
      <point x="776" y="664" type="qcurve"/>
      <point x="776" y="614"/>
      <point x="702" y="588" type="qcurve"/>
      <point x="696" y="586"/>
      <point x="584" y="559" type="qcurve"/>
      <point x="393" y="516"/>
      <point x="291" y="397" type="qcurve"/>
      <point x="221" y="317"/>
      <point x="221" y="248" type="qcurve"/>
      <point x="221" y="199"/>
      <point x="295" y="129"/>
      <point x="344" y="129" type="qcurve"/>
      <point x="418" y="129"/>
      <point x="506" y="193" type="qcurve"/>
      <point x="528" y="209"/>
      <point x="643" y="307" type="qcurve"/>
      <point x="442" y="279"/>
      <point x="414" y="279" type="qcurve"/>
      <point x="383" y="279"/>
      <point x="371" y="293" type="qcurve"/>
      <point x="412" y="395"/>
      <point x="567" y="432" type="qcurve"/>
      <point x="653" y="453"/>
      <point x="821" y="453" type="qcurve"/>
      <point x="877" y="453"/>
      <point x="877" y="434" type="qcurve"/>
      <point x="877" y="367"/>
      <point x="786" y="338" type="qcurve"/>
      <point x="754" y="328"/>
      <point x="641" y="315" type="qcurve"/>
      <point x="688" y="293"/>
      <point x="743" y="248" type="qcurve"/>
      <point x="688" y="145"/>
      <point x="436" y="-8"/>
      <point x="319" y="-8" type="qcurve"/>
      <point x="207" y="-8"/>
      <point x="70" y="141"/>
      <point x="70" y="254" type="qcurve"/>
      <point x="70" y="465"/>
      <point x="463" y="649" type="qcurve"/>
      <point x="399" y="711"/>
      <point x="381" y="737" type="qcurve"/>
      <point x="346" y="788"/>
      <point x="346" y="850" type="qcurve"/>
      <point x="346" y="989"/>
      <point x="494" y="1081" type="qcurve"/>
      <point x="623" y="1163"/>
      <point x="770" y="1163" type="qcurve"/>
      <point x="971" y="1163"/>
    </contour>
  </outline>
</glyph>
<glyph name="plus" format="2">
  <advance width="1167"/>
  <unicode hex="002B"/>
  <outline>
    <contour>
      <point x="1098" y="590" type="line"/>
      <point x="1069" y="492" type="line"/>
      <point x="629" y="492" type="line"/>
      <point x="512" y="123" type="line"/>
      <point x="401" y="123" type="line"/>
      <point x="524" y="492" type="line"/>
      <point x="86" y="492" type="line"/>
      <point x="117" y="590" type="line"/>
      <point x="549" y="590" type="line"/>
      <point x="672" y="956" type="line"/>
      <point x="784" y="956" type="line"/>
      <point x="666" y="590" type="line"/>
    </contour>
  </outline>
</glyph>
<glyph name="zero" format="2">
  <advance width="1102"/>
  <unicode hex="0030"/>
  <outline>
    <contour>
      <point x="1044" y="797" type="qcurve"/>
      <point x="1044" y="528"/>
      <point x="874" y="270" type="qcurve"/>
      <point x="684" y="-18"/>
      <point x="432" y="-18" type="qcurve"/>
      <point x="274" y="-18"/>
      <point x="193" y="100" type="qcurve"/>
      <point x="125" y="203"/>
      <point x="125" y="369" type="qcurve"/>
      <point x="125" y="643"/>
      <point x="274" y="887" type="qcurve"/>
      <point x="446" y="1167"/>
      <point x="702" y="1167" type="qcurve"/>
      <point x="868" y="1167"/>
      <point x="1044" y="965"/>
    </contour>
    <contour>
      <point x="881" y="805" type="qcurve"/>
      <point x="881" y="1042"/>
      <point x="707" y="1042" type="qcurve"/>
      <point x="571" y="1042"/>
      <point x="444" y="862" type="qcurve"/>
      <point x="276" y="625"/>
      <point x="276" y="346" type="qcurve"/>
      <point x="276" y="109"/>
      <point x="436" y="109" type="qcurve"/>
      <point x="545" y="109"/>
      <point x="659" y="236" type="qcurve"/>
      <point x="881" y="483"/>
    </contour>
  </outline>
</glyph>
<glyph name="one" format="2">
  <advance width="827"/>
  <unicode hex="0031"/>
  <outline>
    <contour>
      <point x="756" y="1081" type="qcurve"/>
      <point x="756" y="985"/>
      <point x="672" y="784" type="qcurve"/>
      <point x="633" y="700"/>
      <point x="547" y="473" type="qcurve"/>
      <point x="502" y="326"/>
      <point x="403" y="16" type="qcurve"/>
      <point x="385" y="-10"/>
      <point x="338" y="-10" type="qcurve"/>
      <point x="250" y="-10"/>
      <point x="250" y="43" type="qcurve"/>
      <point x="250" y="166"/>
      <point x="352" y="412" type="qcurve"/>
      <point x="352" y="412"/>
      <point x="512" y="780" type="qcurve"/>
      <point x="420" y="721"/>
      <point x="295" y="639" type="qcurve"/>
      <point x="242" y="641"/>
      <point x="217" y="694" type="qcurve"/>
      <point x="236" y="715"/>
      <point x="299" y="752" type="qcurve"/>
      <point x="289" y="764" type="line"/>
      <point x="399" y="850"/>
      <point x="465" y="920" type="qcurve"/>
      <point x="516" y="989"/>
      <point x="629" y="1124" type="qcurve"/>
      <point x="645" y="1141"/>
      <point x="655" y="1141" type="qcurve"/>
      <point x="686" y="1141"/>
      <point x="717" y="1126" type="qcurve"/>
      <point x="756" y="1108"/>
    </contour>
  </outline>
</glyph>
<glyph name="four" format="2">
  <advance width="1102"/>
  <unicode hex="0034"/>
  <outline>
    <contour>
      <point x="1034" y="453" type="qcurve"/>
      <point x="1034" y="403"/>
      <point x="1008" y="379" type="qcurve"/>
      <point x="924" y="381"/>
      <point x="758" y="360" type="qcurve"/>
      <point x="725" y="295"/>
      <point x="688" y="180" type="qcurve"/>
      <point x="643" y="43"/>
      <point x="627" y="-2" type="qcurve"/>
      <point x="610" y="-4"/>
      <point x="586" y="-4" type="qcurve"/>
      <point x="485" y="-4"/>
      <point x="485" y="35" type="qcurve"/>
      <point x="485" y="102"/>
      <point x="532" y="205" type="qcurve"/>
      <point x="590" y="332"/>
      <point x="598" y="373" type="qcurve"/>
      <point x="346" y="373" type="line"/>
      <point x="117" y="373"/>
      <point x="78" y="498" type="qcurve"/>
      <point x="104" y="565"/>
      <point x="215" y="657" type="qcurve"/>
      <point x="340" y="762"/>
      <point x="600" y="999" type="qcurve"/>
      <point x="766" y="1151"/>
      <point x="795" y="1151" type="qcurve"/>
      <point x="823" y="1151"/>
      <point x="889" y="1106"/>
      <point x="893" y="1079" type="qcurve"/>
      <point x="850" y="1034"/>
      <point x="571" y="799" type="qcurve"/>
      <point x="352" y="612"/>
      <point x="299" y="504" type="qcurve"/>
      <point x="373" y="492"/>
      <point x="467" y="492" type="qcurve"/>
      <point x="545" y="492"/>
      <point x="596" y="496" type="qcurve"/>
      <point x="631" y="455" type="line"/>
      <point x="709" y="690" type="line"/>
      <point x="770" y="856"/>
      <point x="813" y="897" type="qcurve"/>
      <point x="840" y="922"/>
      <point x="889" y="922" type="qcurve"/>
      <point x="969" y="922"/>
      <point x="969" y="889" type="qcurve"/>
      <point x="969" y="825"/>
      <point x="905" y="696" type="qcurve"/>
      <point x="836" y="555"/>
      <point x="825" y="492" type="qcurve"/>
      <point x="897" y="498"/>
      <point x="979" y="498" type="qcurve"/>
      <point x="1034" y="498"/>
    </contour>
  </outline>
</glyph>
<glyph name="seven" format="2">
  <advance width="977"/>
  <unicode hex="0037"/>
  <outline>
    <contour>
      <point x="1065" y="1063" type="qcurve"/>
      <point x="1065" y="1042"/>
      <point x="717" y="588" type="qcurve"/>
      <point x="510" y="317"/>
      <point x="395" y="127" type="qcurve"/>
      <point x="381" y="100"/>
      <point x="315" y="-4"/>
      <point x="285" y="-4" type="qcurve"/>
      <point x="195" y="-4"/>
      <point x="178" y="39" type="qcurve"/>
      <point x="186" y="63"/>
      <point x="256" y="180" type="qcurve"/>
      <point x="393" y="412" type="line"/>
      <point x="467" y="532"/>
      <point x="547" y="633" type="qcurve"/>
      <point x="559" y="647"/>
      <point x="702" y="819" type="qcurve"/>
      <point x="797" y="932"/>
      <point x="846" y="1014" type="qcurve"/>
      <point x="776" y="1026"/>
      <point x="735" y="1026" type="qcurve"/>
      <point x="719" y="1026"/>
      <point x="680" y="1026" type="qcurve"/>
      <point x="629" y="1024"/>
      <point x="600" y="1024" type="qcurve"/>
      <point x="600" y="1024"/>
      <point x="465" y="1024" type="qcurve"/>
      <point x="422" y="1024"/>
      <point x="406" y="954" type="qcurve"/>
      <point x="385" y="877"/>
      <point x="377" y="872" type="qcurve"/>
      <point x="342" y="879"/>
      <point x="317" y="879" type="qcurve"/>
      <point x="299" y="879"/>
      <point x="285" y="874" type="qcurve"/>
      <point x="260" y="883" type="line"/>
      <point x="246" y="903" type="line"/>
      <point x="256" y="928"/>
      <point x="272" y="977" type="qcurve"/>
      <point x="287" y="1038"/>
      <point x="301" y="1102" type="qcurve"/>
      <point x="328" y="1153"/>
      <point x="412" y="1151" type="qcurve"/>
      <point x="408" y="1171"/>
      <point x="393" y="1171" type="qcurve"/>
      <point x="385" y="1161" type="line"/>
      <point x="424" y="1143"/>
      <point x="541" y="1143" type="qcurve"/>
      <point x="946" y="1143" type="line"/>
      <point x="985" y="1143"/>
      <point x="1065" y="1098"/>
    </contour>
  </outline>
</glyph>
<glyph name="nine" format="2">
  <advance width="1008"/>
  <unicode hex="0039"/>
  <outline>
    <contour>
      <point x="969" y="856" type="qcurve"/>
      <point x="969" y="571"/>
      <point x="733" y="330" type="qcurve"/>
      <point x="600" y="195"/>
      <point x="256" y="-27" type="qcurve"/>
      <point x="209" y="-57"/>
      <point x="195" y="-57" type="qcurve"/>
      <point x="182" y="-57"/>
      <point x="139" y="14"/>
      <point x="139" y="29" type="qcurve"/>
      <point x="139" y="55"/>
      <point x="287" y="152" type="qcurve"/>
      <point x="348" y="190"/>
      <point x="471" y="270" type="qcurve"/>
      <point x="610" y="367"/>
      <point x="686" y="485" type="qcurve"/>
      <point x="664" y="494"/>
      <point x="653" y="494" type="qcurve"/>
      <point x="645" y="494"/>
      <point x="612" y="473"/>
      <point x="610" y="473" type="qcurve"/>
      <point x="584" y="473"/>
      <point x="477" y="442"/>
      <point x="451" y="442" type="qcurve"/>
      <point x="350" y="442"/>
      <point x="190" y="584"/>
      <point x="190" y="684" type="qcurve"/>
      <point x="190" y="709"/>
      <point x="223" y="819" type="qcurve"/>
      <point x="266" y="967"/>
      <point x="514" y="1163"/>
      <point x="664" y="1163" type="qcurve"/>
      <point x="801" y="1163"/>
      <point x="969" y="993"/>
    </contour>
    <contour>
      <point x="817" y="862" type="qcurve"/>
      <point x="817" y="1036"/>
      <point x="651" y="1036" type="qcurve"/>
      <point x="532" y="1036"/>
      <point x="442" y="913" type="qcurve"/>
      <point x="356" y="801"/>
      <point x="356" y="678" type="qcurve"/>
      <point x="356" y="571"/>
      <point x="457" y="571" type="qcurve"/>
      <point x="483" y="571"/>
      <point x="520" y="578" type="qcurve"/>
      <point x="610" y="672"/>
      <point x="637" y="672" type="qcurve"/>
      <point x="674" y="672"/>
      <point x="725" y="520" type="qcurve"/>
      <point x="817" y="784"/>
    </contour>
  </outline>
</glyph>
<glyph name="greater" format="2">
  <advance width="1212"/>
  <unicode hex="003E"/>
  <outline>
    <contour>
      <point x="1104" y="412" type="qcurve"/>
      <point x="1104" y="383"/>
      <point x="1067" y="346"/>
      <point x="911" y="313"/>
      <point x="754" y="279" type="qcurve"/>
      <point x="715" y="270"/>
      <point x="412" y="178" type="qcurve"/>
      <point x="178" y="106"/>
      <point x="84" y="106" type="qcurve"/>
      <point x="66" y="106"/>
      <point x="39" y="139"/>
      <point x="39" y="158" type="qcurve"/>
      <point x="39" y="190"/>
      <point x="90" y="223" type="qcurve"/>
      <point x="117" y="240"/>
      <point x="825" y="408"/>
      <point x="866" y="408" type="qcurve"/>
      <point x="915" y="408"/>
      <point x="1016" y="356" type="qcurve"/>
      <point x="940" y="422"/>
      <point x="862" y="487" type="qcurve"/>
      <point x="797" y="541"/>
      <point x="692" y="596" type="qcurve"/>
      <point x="559" y="659"/>
      <point x="301" y="799" type="qcurve"/>
      <point x="270" y="817"/>
      <point x="270" y="823" type="qcurve"/>
      <point x="270" y="860"/>
      <point x="340" y="918"/>
      <point x="377" y="918" type="qcurve"/>
      <point x="420" y="918"/>
      <point x="707" y="760" type="qcurve"/>
      <point x="987" y="606"/>
      <point x="1032" y="561" type="qcurve"/>
      <point x="1104" y="489"/>
    </contour>
  </outline>
</glyph>
<glyph name="at" format="2">
  <advance width="1642"/>
  <unicode hex="0040"/>
  <outline>
    <contour>
      <point x="1569" y="791" type="qcurve"/>
      <point x="1569" y="582"/>
      <point x="1171" y="195"/>
      <point x="963" y="195" type="qcurve"/>
      <point x="868" y="195"/>
      <point x="825" y="276" type="qcurve"/>
      <point x="694" y="201"/>
      <point x="588" y="201" type="qcurve"/>
      <point x="510" y="201"/>
      <point x="451" y="236" type="qcurve"/>
      <point x="381" y="276"/>
      <point x="381" y="350" type="qcurve"/>
      <point x="381" y="545"/>
      <point x="596" y="735" type="qcurve"/>
      <point x="807" y="920"/>
      <point x="1004" y="920" type="qcurve"/>
      <point x="1116" y="920"/>
      <point x="1192" y="817" type="qcurve"/>
      <point x="1237" y="883" type="line"/>
      <point x="1364" y="883" type="line"/>
      <point x="971" y="358"/>
      <point x="971" y="317" type="qcurve"/>
      <point x="971" y="274"/>
      <point x="1012" y="274" type="qcurve"/>
      <point x="1118" y="274"/>
      <point x="1255" y="397" type="qcurve"/>
      <point x="1454" y="573"/>
      <point x="1454" y="768" type="qcurve"/>
      <point x="1454" y="930"/>
      <point x="1313" y="1014" type="qcurve"/>
      <point x="1196" y="1083"/>
      <point x="1024" y="1083" type="qcurve"/>
      <point x="745" y="1083"/>
      <point x="508" y="889" type="qcurve"/>
      <point x="258" y="684"/>
      <point x="258" y="412" type="qcurve"/>
      <point x="258" y="236"/>
      <point x="391" y="131" type="qcurve"/>
      <point x="512" y="35"/>
      <point x="692" y="35" type="qcurve"/>
      <point x="1018" y="35"/>
      <point x="1268" y="252" type="qcurve"/>
      <point x="1374" y="252" type="line"/>
      <point x="1065" y="-39"/>
      <point x="668" y="-39" type="qcurve"/>
      <point x="453" y="-39"/>
      <point x="303" y="74" type="qcurve"/>
      <point x="141" y="199"/>
      <point x="141" y="408" type="qcurve"/>
      <point x="141" y="713"/>
      <point x="449" y="946" type="qcurve"/>
      <point x="733" y="1161"/>
      <point x="1051" y="1161" type="qcurve"/>
      <point x="1253" y="1161"/>
      <point x="1397" y="1079" type="qcurve"/>
      <point x="1569" y="979"/>
    </contour>
    <contour>
      <point x="1085" y="737" type="qcurve"/>
      <point x="1085" y="831"/>
      <point x="965" y="831" type="qcurve"/>
      <point x="838" y="831"/>
      <point x="528" y="524"/>
      <point x="528" y="397" type="qcurve"/>
      <point x="528" y="354"/>
      <point x="602" y="295"/>
      <point x="647" y="295" type="qcurve"/>
      <point x="766" y="295"/>
      <point x="1085" y="618"/>
    </contour>
  </outline>
</glyph>
<glyph name="A" format="2">
  <advance width="823"/>
  <unicode hex="0041"/>
  <outline>
    <contour>
      <point x="711" y="860" type="qcurve"/>
      <point x="711" y="758"/>
      <point x="698" y="350"/>
      <point x="698" y="248" type="qcurve"/>
      <point x="698" y="203"/>
      <point x="670" y="166"/>
      <point x="623" y="166" type="qcurve"/>
      <point x="569" y="166"/>
      <point x="569" y="250" type="qcurve"/>
      <point x="569" y="373"/>
      <point x="600" y="434" type="qcurve"/>
      <point x="569" y="428"/>
      <point x="436" y="379"/>
      <point x="397" y="377" type="qcurve"/>
      <point x="401" y="377"/>
      <point x="305" y="377" type="qcurve"/>
      <point x="236" y="190"/>
      <point x="209" y="176" type="qcurve"/>
      <point x="190" y="166"/>
      <point x="176" y="166" type="qcurve"/>
      <point x="127" y="166"/>
      <point x="127" y="205" type="qcurve"/>
      <point x="127" y="264"/>
      <point x="201" y="387" type="qcurve"/>
      <point x="164" y="399"/>
      <point x="164" y="412" type="qcurve"/>
      <point x="164" y="444"/>
      <point x="223" y="500"/>
      <point x="258" y="498" type="qcurve"/>
      <point x="313" y="590"/>
      <point x="430" y="772" type="qcurve"/>
      <point x="571" y="985"/>
      <point x="623" y="985" type="qcurve"/>
      <point x="711" y="985"/>
    </contour>
    <contour>
      <point x="633" y="811" type="qcurve"/>
      <point x="633" y="831"/>
      <point x="623" y="883" type="qcurve"/>
      <point x="449" y="674"/>
      <point x="350" y="471" type="qcurve"/>
      <point x="383" y="469"/>
      <point x="397" y="469" type="qcurve"/>
      <point x="432" y="469"/>
      <point x="492" y="481" type="qcurve"/>
      <point x="563" y="498"/>
      <point x="588" y="500" type="qcurve"/>
      <point x="633" y="641"/>
    </contour>
  </outline>
</glyph>
<glyph name="D" format="2">
  <advance width="948"/>
  <unicode hex="0044"/>
  <outline>
    <contour>
      <point x="905" y="727" type="qcurve"/>
      <point x="905" y="633"/>
      <point x="852" y="461" type="qcurve"/>
      <point x="842" y="430"/>
      <point x="813" y="356" type="qcurve"/>
      <point x="758" y="238"/>
      <point x="602" y="190" type="qcurve"/>
      <point x="500" y="158"/>
      <point x="324" y="158" type="qcurve"/>
      <point x="279" y="158"/>
      <point x="252" y="188"/>
      <point x="250" y="233" type="qcurve"/>
      <point x="250" y="281"/>
      <point x="250" y="322" type="qcurve"/>
      <point x="250" y="406"/>
      <point x="455" y="762"/>
      <point x="455" y="825" type="qcurve"/>
      <point x="455" y="850"/>
      <point x="418" y="862" type="qcurve"/>
      <point x="371" y="821"/>
      <point x="342" y="821" type="qcurve"/>
      <point x="330" y="821"/>
      <point x="299" y="840"/>
      <point x="299" y="850" type="qcurve"/>
      <point x="299" y="913"/>
      <point x="418" y="952" type="qcurve"/>
      <point x="508" y="983"/>
      <point x="588" y="983" type="qcurve"/>
      <point x="721" y="983"/>
      <point x="807" y="924" type="qcurve"/>
      <point x="905" y="854"/>
    </contour>
    <contour>
      <point x="797" y="727" type="qcurve"/>
      <point x="797" y="893"/>
      <point x="594" y="893" type="qcurve"/>
      <point x="561" y="893"/>
      <point x="494" y="872" type="qcurve"/>
      <point x="547" y="846"/>
      <point x="547" y="829" type="qcurve"/>
      <point x="547" y="745"/>
      <point x="453" y="578" type="qcurve"/>
      <point x="410" y="500"/>
      <point x="356" y="332" type="qcurve"/>
      <point x="346" y="299"/>
      <point x="346" y="285" type="qcurve"/>
      <point x="346" y="233"/>
      <point x="434" y="233" type="qcurve"/>
      <point x="471" y="233"/>
      <point x="551" y="266" type="qcurve"/>
      <point x="584" y="279"/>
      <point x="659" y="324" type="qcurve"/>
      <point x="721" y="377"/>
      <point x="762" y="512" type="qcurve"/>
      <point x="797" y="629"/>
    </contour>
  </outline>
</glyph>
<glyph name="G" format="2">
  <advance width="963"/>
  <unicode hex="0047"/>
  <outline>
    <contour>
      <point x="944" y="825" type="qcurve"/>
      <point x="944" y="791"/>
      <point x="895" y="715"/>
      <point x="862" y="715" type="qcurve"/>
      <point x="827" y="715"/>
      <point x="805" y="754" type="qcurve"/>
      <point x="842" y="815"/>
      <point x="842" y="825" type="qcurve"/>
      <point x="842" y="850"/>
      <point x="797" y="885"/>
      <point x="770" y="885" type="qcurve"/>
      <point x="664" y="885"/>
      <point x="621" y="872" type="qcurve"/>
      <point x="555" y="852"/>
      <point x="506" y="786" type="qcurve"/>
      <point x="424" y="674"/>
      <point x="389" y="600" type="qcurve"/>
      <point x="346" y="504"/>
      <point x="346" y="391" type="qcurve"/>
      <point x="346" y="332"/>
      <point x="422" y="252"/>
      <point x="483" y="252" type="qcurve"/>
      <point x="532" y="252" type="line"/>
      <point x="608" y="252"/>
      <point x="662" y="330" type="qcurve"/>
      <point x="709" y="399"/>
      <point x="709" y="481" type="qcurve"/>
      <point x="651" y="465"/>
      <point x="592" y="465" type="qcurve"/>
      <point x="559" y="465"/>
      <point x="559" y="487" type="qcurve"/>
      <point x="559" y="539"/>
      <point x="639" y="553" type="qcurve"/>
      <point x="672" y="557"/>
      <point x="760" y="557" type="qcurve"/>
      <point x="877" y="557"/>
      <point x="877" y="514" type="qcurve"/>
      <point x="877" y="477"/>
      <point x="776" y="481" type="qcurve"/>
      <point x="809" y="442"/>
      <point x="809" y="432" type="qcurve"/>
      <point x="809" y="338"/>
      <point x="608" y="160"/>
      <point x="512" y="160" type="qcurve"/>
      <point x="412" y="160"/>
      <point x="330" y="213" type="qcurve"/>
      <point x="240" y="274"/>
      <point x="240" y="371" type="qcurve"/>
      <point x="240" y="532"/>
      <point x="401" y="852"/>
      <point x="532" y="938" type="qcurve"/>
      <point x="598" y="979"/>
      <point x="784" y="979" type="qcurve"/>
      <point x="944" y="979"/>
    </contour>
  </outline>
</glyph>
<glyph name="I" format="2">
  <advance width="535"/>
  <unicode hex="0049"/>
  <outline>
    <contour>
      <point x="557" y="930" type="qcurve"/>
      <point x="442" y="657" type="line"/>
      <point x="379" y="504"/>
      <point x="350" y="379" type="qcurve"/>
      <point x="342" y="334"/>
      <point x="299" y="150"/>
      <point x="246" y="150" type="qcurve"/>
      <point x="197" y="150"/>
      <point x="197" y="184" type="qcurve"/>
      <point x="197" y="285"/>
      <point x="303" y="606" type="qcurve"/>
      <point x="418" y="944"/>
      <point x="481" y="971" type="qcurve"/>
      <point x="492" y="977"/>
      <point x="514" y="977" type="qcurve"/>
      <point x="561" y="977"/>
    </contour>
  </outline>
</glyph>
<glyph name="N" format="2">
  <advance width="991"/>
  <unicode hex="004E"/>
  <outline>
    <contour>
      <point x="987" y="944" type="qcurve"/>
      <point x="987" y="915"/>
      <point x="920" y="748" type="qcurve"/>
      <point x="903" y="692"/>
      <point x="858" y="549" type="qcurve"/>
      <point x="827" y="430"/>
      <point x="758" y="197" type="qcurve"/>
      <point x="748" y="166"/>
      <point x="723" y="147"/>
      <point x="688" y="147" type="qcurve"/>
      <point x="666" y="147"/>
      <point x="645" y="170" type="qcurve"/>
      <point x="635" y="180"/>
      <point x="584" y="485" type="qcurve"/>
      <point x="541" y="748"/>
      <point x="528" y="844" type="qcurve"/>
      <point x="442" y="621"/>
      <point x="375" y="416" type="qcurve"/>
      <point x="356" y="348"/>
      <point x="303" y="174" type="qcurve"/>
      <point x="289" y="162"/>
      <point x="270" y="162" type="qcurve"/>
      <point x="215" y="162"/>
      <point x="215" y="201" type="qcurve"/>
      <point x="215" y="293"/>
      <point x="268" y="432" type="qcurve"/>
      <point x="297" y="498"/>
      <point x="360" y="668" type="qcurve"/>
      <point x="373" y="715"/>
      <point x="399" y="807" type="qcurve"/>
      <point x="449" y="967"/>
      <point x="520" y="967" type="qcurve"/>
      <point x="569" y="967"/>
      <point x="594" y="950" type="qcurve"/>
      <point x="606" y="942"/>
      <point x="655" y="649" type="qcurve"/>
      <point x="692" y="418"/>
      <point x="709" y="301" type="qcurve"/>
      <point x="719" y="403"/>
      <point x="780" y="649" type="qcurve"/>
      <point x="852" y="932"/>
      <point x="891" y="961" type="qcurve"/>
      <point x="909" y="975"/>
      <point x="936" y="975" type="qcurve"/>
      <point x="987" y="975"/>
    </contour>
  </outline>
</glyph>
<glyph name="O" format="2">
  <advance width="885"/>
  <unicode hex="004F"/>
  <outline>
    <contour>
      <point x="856" y="764" type="qcurve"/>
      <point x="856" y="545"/>
      <point x="756" y="369" type="qcurve"/>
      <point x="635" y="160"/>
      <point x="432" y="160" type="qcurve"/>
      <point x="342" y="160"/>
      <point x="229" y="276"/>
      <point x="229" y="369" type="qcurve"/>
      <point x="229" y="494"/>
      <point x="305" y="645" type="qcurve"/>
      <point x="375" y="786"/>
      <point x="471" y="879" type="qcurve"/>
      <point x="588" y="991"/>
      <point x="705" y="991" type="qcurve"/>
      <point x="758" y="991"/>
      <point x="758" y="942" type="qcurve"/>
      <point x="758" y="928"/>
      <point x="750" y="905" type="qcurve"/>
      <point x="793" y="907" type="line"/>
      <point x="856" y="907"/>
    </contour>
    <contour>
      <point x="764" y="752" type="qcurve"/>
      <point x="764" y="852"/>
      <point x="707" y="901" type="qcurve"/>
      <point x="547" y="883"/>
      <point x="438" y="700" type="qcurve"/>
      <point x="342" y="539"/>
      <point x="342" y="365" type="qcurve"/>
      <point x="342" y="244"/>
      <point x="453" y="244" type="qcurve"/>
      <point x="588" y="244"/>
      <point x="684" y="436" type="qcurve"/>
      <point x="764" y="598"/>
    </contour>
  </outline>
</glyph>
<glyph name="P" format="2">
  <advance width="897"/>
  <unicode hex="0050"/>
  <outline>
    <contour>
      <point x="891" y="772" type="qcurve"/>
      <point x="891" y="463"/>
      <point x="406" y="408" type="qcurve"/>
      <point x="346" y="180"/>
      <point x="299" y="152"/>
      <point x="276" y="152" type="qcurve"/>
      <point x="262" y="152"/>
      <point x="229" y="174"/>
      <point x="229" y="188" type="qcurve"/>
      <point x="229" y="229"/>
      <point x="262" y="299" type="qcurve"/>
      <point x="299" y="377"/>
      <point x="307" y="410" type="qcurve"/>
      <point x="270" y="430"/>
      <point x="270" y="459" type="qcurve"/>
      <point x="270" y="518"/>
      <point x="338" y="526" type="qcurve"/>
      <point x="406" y="690" type="line"/>
      <point x="436" y="780"/>
      <point x="442" y="864" type="qcurve"/>
      <point x="403" y="848"/>
      <point x="346" y="825" type="qcurve"/>
      <point x="319" y="827"/>
      <point x="319" y="854" type="qcurve"/>
      <point x="319" y="918"/>
      <point x="436" y="952" type="qcurve"/>
      <point x="518" y="977"/>
      <point x="606" y="977" type="qcurve"/>
      <point x="723" y="977"/>
      <point x="797" y="934" type="qcurve"/>
      <point x="891" y="881"/>
    </contour>
    <contour>
      <point x="797" y="758" type="qcurve"/>
      <point x="797" y="817"/>
      <point x="737" y="854" type="qcurve"/>
      <point x="688" y="887"/>
      <point x="623" y="887" type="qcurve"/>
      <point x="592" y="887"/>
      <point x="506" y="874" type="qcurve"/>
      <point x="549" y="825"/>
      <point x="549" y="819" type="qcurve"/>
      <point x="549" y="774"/>
      <point x="455" y="598"/>
      <point x="455" y="553" type="qcurve"/>
      <point x="455" y="543"/>
      <point x="457" y="500" type="qcurve"/>
      <point x="578" y="510"/>
      <point x="678" y="573" type="qcurve"/>
      <point x="797" y="647"/>
    </contour>
  </outline>
</glyph>
<glyph name="Q" format="2">
  <advance width="975"/>
  <unicode hex="0051"/>
  <outline>
    <contour>
      <point x="936" y="758" type="qcurve"/>
      <point x="936" y="434"/>
      <point x="668" y="199" type="qcurve"/>
      <point x="723" y="111"/>
      <point x="723" y="102" type="qcurve"/>
      <point x="723" y="55"/>
      <point x="645" y="55" type="qcurve"/>
      <point x="618" y="55"/>
      <point x="598" y="92" type="qcurve"/>
      <point x="582" y="119"/>
      <point x="565" y="150" type="qcurve"/>
      <point x="510" y="133"/>
      <point x="492" y="133" type="qcurve"/>
      <point x="393" y="133"/>
      <point x="262" y="264"/>
      <point x="262" y="365" type="qcurve"/>
      <point x="262" y="481"/>
      <point x="295" y="567" type="qcurve"/>
      <point x="324" y="643"/>
      <point x="401" y="743" type="qcurve"/>
      <point x="522" y="907"/>
      <point x="721" y="961" type="qcurve"/>
      <point x="752" y="969"/>
      <point x="768" y="969" type="qcurve"/>
      <point x="811" y="969"/>
      <point x="811" y="944" type="qcurve"/>
      <point x="811" y="932"/>
      <point x="793" y="897" type="qcurve"/>
      <point x="842" y="899"/>
      <point x="848" y="899" type="qcurve"/>
      <point x="907" y="899"/>
      <point x="926" y="854" type="qcurve"/>
      <point x="936" y="831"/>
    </contour>
    <contour>
      <point x="825" y="756" type="qcurve"/>
      <point x="825" y="846"/>
      <point x="772" y="887" type="qcurve"/>
      <point x="606" y="854"/>
      <point x="492" y="692" type="qcurve"/>
      <point x="381" y="539"/>
      <point x="381" y="367" type="qcurve"/>
      <point x="381" y="233"/>
      <point x="477" y="221" type="qcurve"/>
      <point x="518" y="231" type="line"/>
      <point x="487" y="270"/>
      <point x="479" y="299" type="qcurve"/>
      <point x="496" y="344"/>
      <point x="557" y="344" type="qcurve"/>
      <point x="590" y="344"/>
      <point x="606" y="266" type="qcurve"/>
      <point x="698" y="354"/>
      <point x="825" y="631"/>
    </contour>
  </outline>
</glyph>
<glyph name="T" format="2">
  <advance width="922"/>
  <unicode hex="0054"/>
  <outline>
    <contour>
      <point x="991" y="918" type="qcurve"/>
      <point x="991" y="868"/>
      <point x="903" y="868" type="qcurve"/>
      <point x="799" y="868"/>
      <point x="645" y="883" type="qcurve"/>
      <point x="735" y="831"/>
      <point x="735" y="825" type="qcurve"/>
      <point x="735" y="807"/>
      <point x="651" y="582" type="qcurve"/>
      <point x="604" y="451"/>
      <point x="551" y="297" type="qcurve"/>
      <point x="545" y="276"/>
      <point x="535" y="211" type="qcurve"/>
      <point x="518" y="152"/>
      <point x="489" y="152" type="qcurve"/>
      <point x="408" y="152"/>
      <point x="408" y="180" type="qcurve"/>
      <point x="408" y="229"/>
      <point x="512" y="512" type="qcurve"/>
      <point x="535" y="573"/>
      <point x="633" y="874" type="qcurve"/>
      <point x="590" y="874"/>
      <point x="420" y="868"/>
      <point x="379" y="868" type="qcurve"/>
      <point x="344" y="868"/>
      <point x="344" y="903" type="qcurve"/>
      <point x="344" y="928"/>
      <point x="365" y="958" type="qcurve"/>
      <point x="373" y="969"/>
      <point x="502" y="969" type="qcurve"/>
      <point x="487" y="969"/>
      <point x="588" y="969" type="qcurve"/>
      <point x="707" y="967"/>
      <point x="860" y="967" type="qcurve"/>
      <point x="991" y="967"/>
    </contour>
  </outline>
</glyph>
<glyph name="V" format="2">
  <advance width="952"/>
  <unicode hex="0056"/>
  <outline>
    <contour>
      <point x="1004" y="938" type="qcurve"/>
      <point x="1004" y="909"/>
      <point x="561" y="250"/>
      <point x="508" y="197" type="qcurve"/>
      <point x="473" y="162"/>
      <point x="440" y="162" type="qcurve"/>
      <point x="393" y="162"/>
      <point x="379" y="207" type="qcurve"/>
      <point x="369" y="231"/>
      <point x="369" y="291" type="qcurve"/>
      <point x="369" y="907"/>
      <point x="416" y="956" type="qcurve"/>
      <point x="430" y="973"/>
      <point x="444" y="973" type="qcurve"/>
      <point x="516" y="973"/>
      <point x="516" y="922" type="qcurve"/>
      <point x="516" y="905"/>
      <point x="489" y="723" type="qcurve"/>
      <point x="473" y="612"/>
      <point x="473" y="522" type="qcurve"/>
      <point x="473" y="483"/>
      <point x="479" y="326"/>
      <point x="479" y="287" type="qcurve"/>
      <point x="528" y="379"/>
      <point x="608" y="500" type="qcurve"/>
      <point x="694" y="633"/>
      <point x="788" y="782"/>
      <point x="907" y="983" type="qcurve"/>
      <point x="920" y="989"/>
      <point x="934" y="989" type="qcurve"/>
      <point x="1004" y="989"/>
    </contour>
  </outline>
</glyph>
<glyph name="X" format="2">
  <advance width="893"/>
  <unicode hex="0058"/>
  <outline>
    <contour>
      <point x="930" y="928" type="qcurve"/>
      <point x="930" y="895"/>
      <point x="786" y="756" type="qcurve"/>
      <point x="766" y="731"/>
      <point x="709" y="670" type="qcurve"/>
      <point x="678" y="639"/>
      <point x="600" y="557" type="qcurve"/>
      <point x="641" y="426"/>
      <point x="696" y="274" type="qcurve"/>
      <point x="717" y="221"/>
      <point x="717" y="199" type="qcurve"/>
      <point x="717" y="147"/>
      <point x="666" y="147" type="qcurve"/>
      <point x="598" y="147"/>
      <point x="575" y="281" type="qcurve"/>
      <point x="565" y="352"/>
      <point x="518" y="467" type="qcurve"/>
      <point x="508" y="459"/>
      <point x="371" y="297" type="qcurve"/>
      <point x="262" y="168"/>
      <point x="221" y="168" type="qcurve"/>
      <point x="207" y="168"/>
      <point x="152" y="197"/>
      <point x="152" y="209" type="qcurve"/>
      <point x="152" y="219"/>
      <point x="190" y="254" type="qcurve"/>
      <point x="205" y="266"/>
      <point x="242" y="297" type="qcurve"/>
      <point x="317" y="393"/>
      <point x="481" y="580" type="qcurve"/>
      <point x="444" y="705"/>
      <point x="356" y="862" type="qcurve"/>
      <point x="324" y="926"/>
      <point x="324" y="944" type="qcurve"/>
      <point x="324" y="977"/>
      <point x="381" y="977" type="qcurve"/>
      <point x="438" y="977"/>
      <point x="467" y="913" type="qcurve"/>
      <point x="508" y="801" type="line"/>
      <point x="516" y="784"/>
      <point x="528" y="723" type="qcurve"/>
      <point x="539" y="676"/>
      <point x="563" y="645" type="qcurve"/>
      <point x="604" y="715"/>
      <point x="715" y="836" type="qcurve"/>
      <point x="844" y="975"/>
      <point x="893" y="975" type="qcurve"/>
      <point x="930" y="975"/>
    </contour>
  </outline>
</glyph>
<glyph name="Y" format="2">
  <advance width="883"/>
  <unicode hex="0059"/>
  <outline>
    <contour>
      <point x="948" y="936" type="qcurve"/>
      <point x="948" y="889"/>
      <point x="846" y="774" type="qcurve"/>
      <point x="772" y="692"/>
      <point x="627" y="524"/>
      <point x="575" y="422" type="qcurve"/>
      <point x="516" y="299"/>
      <point x="485" y="201" type="qcurve"/>
      <point x="465" y="139"/>
      <point x="426" y="139" type="qcurve"/>
      <point x="373" y="139"/>
      <point x="373" y="193" type="qcurve"/>
      <point x="373" y="223"/>
      <point x="422" y="342" type="qcurve"/>
      <point x="465" y="444"/>
      <point x="492" y="494" type="qcurve"/>
      <point x="483" y="532"/>
      <point x="408" y="727" type="qcurve"/>
      <point x="346" y="885"/>
      <point x="346" y="948" type="qcurve"/>
      <point x="346" y="961"/>
      <point x="403" y="975"/>
      <point x="420" y="975" type="qcurve"/>
      <point x="459" y="975"/>
      <point x="475" y="913" type="qcurve"/>
      <point x="479" y="893"/>
      <point x="494" y="838" type="qcurve"/>
      <point x="516" y="770"/>
      <point x="571" y="592" type="qcurve"/>
      <point x="616" y="670"/>
      <point x="803" y="885" type="qcurve"/>
      <point x="813" y="903"/>
      <point x="842" y="946" type="qcurve"/>
      <point x="858" y="971"/>
      <point x="885" y="971" type="qcurve"/>
      <point x="948" y="971"/>
    </contour>
  </outline>
</glyph>
<glyph name="bracketright" format="2">
  <advance width="885"/>
  <unicode hex="005D"/>
  <outline>
    <contour>
      <point x="881" y="1333" type="line"/>
      <point x="297" y="-223" type="line"/>
      <point x="-61" y="-223" type="line"/>
      <point x="-18" y="-117" type="line"/>
      <point x="207" y="-117" type="line"/>
      <point x="711" y="1221" type="line"/>
      <point x="479" y="1221" type="line"/>
      <point x="518" y="1333" type="line"/>
    </contour>
  </outline>
</glyph>
<glyph name="b" format="2">
  <advance width="825"/>
  <unicode hex="0062"/>
  <outline>
    <contour>
      <point x="823" y="764" type="qcurve"/>
      <point x="823" y="657"/>
      <point x="657" y="584" type="qcurve"/>
      <point x="641" y="555" type="line"/>
      <point x="715" y="512"/>
      <point x="715" y="428" type="qcurve"/>
      <point x="715" y="334"/>
      <point x="610" y="270" type="qcurve"/>
      <point x="516" y="213"/>
      <point x="418" y="213" type="qcurve"/>
      <point x="291" y="213"/>
      <point x="291" y="285" type="qcurve"/>
      <point x="291" y="297"/>
      <point x="297" y="319" type="qcurve"/>
      <point x="315" y="410"/>
      <point x="442" y="739"/>
      <point x="461" y="821" type="qcurve"/>
      <point x="362" y="784" type="line"/>
      <point x="352" y="784"/>
      <point x="352" y="795" type="qcurve"/>
      <point x="352" y="915"/>
      <point x="600" y="915" type="qcurve"/>
      <point x="676" y="915"/>
      <point x="743" y="879" type="qcurve"/>
      <point x="823" y="834"/>
    </contour>
    <contour>
      <point x="721" y="754" type="qcurve"/>
      <point x="721" y="797"/>
      <point x="635" y="844"/>
      <point x="590" y="844" type="qcurve"/>
      <point x="569" y="844"/>
      <point x="492" y="825" type="qcurve"/>
      <point x="553" y="797"/>
      <point x="555" y="793" type="qcurve"/>
      <point x="555" y="786"/>
      <point x="543" y="762" type="qcurve"/>
      <point x="494" y="670"/>
      <point x="451" y="537" type="qcurve"/>
      <point x="418" y="420"/>
      <point x="385" y="303" type="qcurve"/>
      <point x="408" y="279"/>
      <point x="434" y="279" type="qcurve"/>
      <point x="502" y="279"/>
      <point x="621" y="377"/>
      <point x="621" y="442" type="qcurve"/>
      <point x="621" y="481"/>
      <point x="522" y="557"/>
      <point x="522" y="565" type="qcurve"/>
      <point x="522" y="602"/>
      <point x="580" y="633" type="qcurve"/>
      <point x="625" y="653"/>
      <point x="670" y="674" type="qcurve"/>
      <point x="721" y="705"/>
    </contour>
  </outline>
</glyph>
<glyph name="h" format="2">
  <advance width="918"/>
  <unicode hex="0068"/>
  <outline>
    <contour>
      <point x="924" y="891" type="qcurve"/>
      <point x="924" y="811"/>
      <point x="864" y="662" type="qcurve"/>
      <point x="834" y="584"/>
      <point x="770" y="432" type="qcurve"/>
      <point x="764" y="408"/>
      <point x="745" y="332" type="qcurve"/>
      <point x="719" y="225"/>
      <point x="662" y="225" type="qcurve"/>
      <point x="625" y="225"/>
      <point x="625" y="244" type="qcurve"/>
      <point x="625" y="309"/>
      <point x="696" y="436" type="qcurve"/>
      <point x="700" y="465"/>
      <point x="721" y="520" type="qcurve"/>
      <point x="678" y="539" type="line"/>
      <point x="659" y="498"/>
      <point x="606" y="498" type="qcurve"/>
      <point x="598" y="498"/>
      <point x="571" y="502"/>
      <point x="565" y="502" type="qcurve"/>
      <point x="535" y="502"/>
      <point x="455" y="496" type="qcurve"/>
      <point x="422" y="371"/>
      <point x="373" y="231" type="qcurve"/>
      <point x="358" y="225"/>
      <point x="344" y="225" type="qcurve"/>
      <point x="293" y="225"/>
      <point x="293" y="246" type="qcurve"/>
      <point x="293" y="303"/>
      <point x="367" y="492" type="qcurve"/>
      <point x="311" y="498"/>
      <point x="311" y="514" type="qcurve"/>
      <point x="311" y="520"/>
      <point x="317" y="535" type="qcurve"/>
      <point x="330" y="559"/>
      <point x="348" y="565" type="qcurve"/>
      <point x="354" y="567"/>
      <point x="391" y="569" type="qcurve"/>
      <point x="504" y="883" type="line"/>
      <point x="514" y="913"/>
      <point x="543" y="913" type="qcurve"/>
      <point x="604" y="913"/>
      <point x="604" y="885" type="qcurve"/>
      <point x="604" y="850"/>
      <point x="485" y="569" type="qcurve"/>
      <point x="729" y="569" type="line"/>
      <point x="821" y="866" type="line"/>
      <point x="836" y="915"/>
      <point x="868" y="915" type="qcurve"/>
      <point x="883" y="915"/>
      <point x="924" y="903"/>
    </contour>
  </outline>
</glyph>
<glyph name="l" format="2">
  <advance width="750"/>
  <unicode hex="006C"/>
  <outline>
    <contour>
      <point x="653" y="283" type="qcurve"/>
      <point x="653" y="264"/>
      <point x="596" y="231"/>
      <point x="575" y="231" type="qcurve"/>
      <point x="311" y="231" type="line"/>
      <point x="227" y="231"/>
      <point x="227" y="283" type="qcurve"/>
      <point x="227" y="291"/>
      <point x="264" y="385" type="qcurve"/>
      <point x="285" y="432"/>
      <point x="358" y="657" type="qcurve"/>
      <point x="446" y="922"/>
      <point x="498" y="922" type="qcurve"/>
      <point x="547" y="922"/>
      <point x="547" y="899" type="qcurve"/>
      <point x="547" y="854"/>
      <point x="504" y="748" type="qcurve"/>
      <point x="471" y="672"/>
      <point x="406" y="520" type="qcurve"/>
      <point x="336" y="360"/>
      <point x="336" y="301" type="qcurve"/>
      <point x="336" y="295" type="line"/>
      <point x="365" y="295" type="line"/>
      <point x="410" y="295"/>
      <point x="580" y="324"/>
      <point x="623" y="324" type="qcurve"/>
      <point x="653" y="324"/>
    </contour>
  </outline>
</glyph>
<glyph name="n" format="2">
  <advance width="934"/>
  <unicode hex="006E"/>
  <outline>
    <contour>
      <point x="932" y="889" type="qcurve"/>
      <point x="932" y="864"/>
      <point x="872" y="721" type="qcurve"/>
      <point x="860" y="674"/>
      <point x="821" y="551" type="qcurve"/>
      <point x="795" y="449"/>
      <point x="735" y="250" type="qcurve"/>
      <point x="721" y="207"/>
      <point x="676" y="207" type="qcurve"/>
      <point x="655" y="207"/>
      <point x="639" y="225" type="qcurve"/>
      <point x="629" y="236"/>
      <point x="588" y="496" type="qcurve"/>
      <point x="551" y="721"/>
      <point x="539" y="803" type="qcurve"/>
      <point x="465" y="612"/>
      <point x="408" y="436" type="qcurve"/>
      <point x="391" y="379"/>
      <point x="346" y="229" type="qcurve"/>
      <point x="332" y="219"/>
      <point x="317" y="219" type="qcurve"/>
      <point x="270" y="219"/>
      <point x="270" y="252" type="qcurve"/>
      <point x="270" y="330"/>
      <point x="317" y="451" type="qcurve"/>
      <point x="340" y="506"/>
      <point x="393" y="651" type="qcurve"/>
      <point x="406" y="692"/>
      <point x="428" y="772" type="qcurve"/>
      <point x="469" y="909"/>
      <point x="532" y="909" type="qcurve"/>
      <point x="573" y="909"/>
      <point x="594" y="895" type="qcurve"/>
      <point x="606" y="889"/>
      <point x="647" y="637" type="qcurve"/>
      <point x="680" y="438"/>
      <point x="692" y="338" type="qcurve"/>
      <point x="702" y="426"/>
      <point x="756" y="637" type="qcurve"/>
      <point x="815" y="879"/>
      <point x="848" y="903" type="qcurve"/>
      <point x="866" y="915"/>
      <point x="889" y="915" type="qcurve"/>
      <point x="932" y="915"/>
    </contour>
  </outline>
</glyph>
<glyph name="o" format="2">
  <advance width="836"/>
  <unicode hex="006F"/>
  <outline>
    <contour>
      <point x="811" y="737" type="qcurve"/>
      <point x="811" y="549"/>
      <point x="725" y="399" type="qcurve"/>
      <point x="623" y="219"/>
      <point x="449" y="219" type="qcurve"/>
      <point x="371" y="219"/>
      <point x="274" y="319"/>
      <point x="274" y="399" type="qcurve"/>
      <point x="274" y="506"/>
      <point x="338" y="635" type="qcurve"/>
      <point x="399" y="756"/>
      <point x="481" y="836" type="qcurve"/>
      <point x="582" y="932"/>
      <point x="682" y="932" type="qcurve"/>
      <point x="727" y="932"/>
      <point x="727" y="891" type="qcurve"/>
      <point x="727" y="879"/>
      <point x="719" y="858" type="qcurve"/>
      <point x="756" y="860" type="line"/>
      <point x="811" y="860"/>
    </contour>
    <contour>
      <point x="731" y="727" type="qcurve"/>
      <point x="731" y="813"/>
      <point x="684" y="854" type="qcurve"/>
      <point x="547" y="840"/>
      <point x="453" y="682" type="qcurve"/>
      <point x="371" y="545"/>
      <point x="371" y="395" type="qcurve"/>
      <point x="371" y="291"/>
      <point x="465" y="291" type="qcurve"/>
      <point x="582" y="291"/>
      <point x="664" y="457" type="qcurve"/>
      <point x="731" y="596"/>
    </contour>
  </outline>
</glyph>
<glyph name="r" format="2">
  <advance width="850"/>
  <unicode hex="0072"/>
  <outline>
    <contour>
      <point x="827" y="741" type="qcurve"/>
      <point x="827" y="637"/>
      <point x="733" y="565" type="qcurve"/>
      <point x="655" y="508"/>
      <point x="539" y="485" type="qcurve"/>
      <point x="567" y="434"/>
      <point x="635" y="356" type="qcurve"/>
      <point x="709" y="270"/>
      <point x="733" y="229" type="qcurve"/>
      <point x="733" y="215"/>
      <point x="688" y="197"/>
      <point x="670" y="197" type="qcurve"/>
      <point x="649" y="197"/>
      <point x="604" y="264" type="qcurve"/>
      <point x="573" y="309"/>
      <point x="561" y="322" type="qcurve"/>
      <point x="489" y="403" type="line"/>
      <point x="451" y="451"/>
      <point x="426" y="494" type="qcurve"/>
      <point x="383" y="399"/>
      <point x="367" y="346" type="qcurve"/>
      <point x="360" y="301"/>
      <point x="346" y="246" type="qcurve"/>
      <point x="340" y="221"/>
      <point x="297" y="221" type="qcurve"/>
      <point x="248" y="221"/>
      <point x="248" y="242" type="qcurve"/>
      <point x="248" y="289"/>
      <point x="346" y="543" type="qcurve"/>
      <point x="416" y="719"/>
      <point x="477" y="862" type="qcurve"/>
      <point x="389" y="762"/>
      <point x="377" y="762" type="qcurve"/>
      <point x="342" y="762"/>
      <point x="342" y="805" type="qcurve"/>
      <point x="342" y="918"/>
      <point x="582" y="918" type="qcurve"/>
      <point x="827" y="918"/>
    </contour>
    <contour>
      <point x="741" y="733" type="qcurve"/>
      <point x="741" y="786"/>
      <point x="688" y="819" type="qcurve"/>
      <point x="643" y="846"/>
      <point x="588" y="846" type="qcurve"/>
      <point x="553" y="846"/>
      <point x="473" y="827" type="qcurve"/>
      <point x="539" y="801"/>
      <point x="539" y="788" type="qcurve"/>
      <point x="539" y="766"/>
      <point x="494" y="668" type="qcurve"/>
      <point x="457" y="590"/>
      <point x="438" y="479" type="qcurve"/>
      <point x="469" y="518"/>
      <point x="530" y="561" type="qcurve"/>
      <point x="610" y="565"/>
      <point x="672" y="610" type="qcurve"/>
      <point x="741" y="659"/>
    </contour>
  </outline>
</glyph>
<glyph name="u" format="2">
  <advance width="895"/>
  <unicode hex="0075"/>
  <outline>
    <contour>
      <point x="915" y="883" type="qcurve"/>
      <point x="915" y="840"/>
      <point x="750" y="389"/>
      <point x="719" y="338" type="qcurve"/>
      <point x="645" y="215"/>
      <point x="494" y="215" type="qcurve"/>
      <point x="309" y="215"/>
      <point x="309" y="352" type="qcurve"/>
      <point x="309" y="444"/>
      <point x="362" y="616" type="qcurve"/>
      <point x="410" y="774"/>
      <point x="461" y="870" type="qcurve"/>
      <point x="485" y="918"/>
      <point x="518" y="918" type="qcurve"/>
      <point x="561" y="918"/>
      <point x="561" y="885" type="qcurve"/>
      <point x="561" y="852"/>
      <point x="528" y="776" type="qcurve"/>
      <point x="512" y="741"/>
      <point x="479" y="668" type="qcurve"/>
      <point x="399" y="471"/>
      <point x="399" y="350" type="qcurve"/>
      <point x="399" y="319"/>
      <point x="438" y="299" type="qcurve"/>
      <point x="471" y="281"/>
      <point x="504" y="281" type="qcurve"/>
      <point x="555" y="281"/>
      <point x="602" y="322" type="qcurve"/>
      <point x="629" y="346"/>
      <point x="700" y="543" type="qcurve"/>
      <point x="762" y="717"/>
      <point x="780" y="795" type="qcurve"/>
      <point x="788" y="838"/>
      <point x="817" y="899" type="qcurve"/>
      <point x="834" y="918"/>
      <point x="854" y="918" type="qcurve"/>
      <point x="915" y="918"/>
    </contour>
  </outline>
</glyph>
<glyph name="w" format="2">
  <advance width="1139"/>
  <unicode hex="0077"/>
  <outline>
    <contour>
      <point x="1171" y="901" type="qcurve"/>
      <point x="1171" y="877"/>
      <point x="879" y="270"/>
      <point x="834" y="227"/>
      <point x="813" y="227" type="qcurve"/>
      <point x="786" y="227"/>
      <point x="780" y="258" type="qcurve"/>
      <point x="776" y="270"/>
      <point x="776" y="311" type="qcurve"/>
      <point x="764" y="311" type="line"/>
      <point x="774" y="307" type="line"/>
      <point x="776" y="311" type="line"/>
      <point x="780" y="324"/>
      <point x="770" y="326" type="qcurve"/>
      <point x="764" y="313" type="line"/>
      <point x="778" y="313" type="line"/>
      <point x="778" y="449"/>
      <point x="782" y="723" type="qcurve"/>
      <point x="743" y="629"/>
      <point x="659" y="442" type="qcurve"/>
      <point x="559" y="227"/>
      <point x="492" y="227" type="qcurve"/>
      <point x="446" y="227"/>
      <point x="446" y="317" type="qcurve"/>
      <point x="446" y="641"/>
      <point x="492" y="870" type="qcurve"/>
      <point x="500" y="922"/>
      <point x="532" y="922" type="qcurve"/>
      <point x="592" y="922"/>
      <point x="592" y="891" type="qcurve"/>
      <point x="592" y="844"/>
      <point x="571" y="723" type="qcurve"/>
      <point x="549" y="575"/>
      <point x="547" y="545" type="qcurve"/>
      <point x="524" y="332" type="line"/>
      <point x="594" y="498"/>
      <point x="631" y="575" type="qcurve"/>
      <point x="717" y="762"/>
      <point x="748" y="786" type="qcurve"/>
      <point x="772" y="805"/>
      <point x="799" y="805" type="qcurve"/>
      <point x="834" y="805"/>
      <point x="854" y="774"/>
      <point x="854" y="735" type="qcurve"/>
      <point x="854" y="518"/>
      <point x="842" y="367" type="qcurve"/>
      <point x="885" y="453"/>
      <point x="952" y="618" type="qcurve"/>
      <point x="1004" y="756"/>
      <point x="1081" y="920" type="qcurve"/>
      <point x="1098" y="938"/>
      <point x="1126" y="938" type="qcurve"/>
      <point x="1171" y="938"/>
    </contour>
  </outline>
</glyph>
<glyph name="y" format="2">
  <advance width="848"/>
  <unicode hex="0079"/>
  <outline>
    <contour>
      <point x="905" y="883" type="qcurve"/>
      <point x="905" y="842"/>
      <point x="817" y="743" type="qcurve"/>
      <point x="754" y="672"/>
      <point x="629" y="528"/>
      <point x="586" y="440" type="qcurve"/>
      <point x="535" y="336"/>
      <point x="508" y="252" type="qcurve"/>
      <point x="492" y="199"/>
      <point x="457" y="199" type="qcurve"/>
      <point x="412" y="199"/>
      <point x="412" y="246" type="qcurve"/>
      <point x="412" y="270"/>
      <point x="455" y="373" type="qcurve"/>
      <point x="492" y="459"/>
      <point x="514" y="502" type="qcurve"/>
      <point x="508" y="535"/>
      <point x="442" y="702" type="qcurve"/>
      <point x="389" y="838"/>
      <point x="389" y="893" type="qcurve"/>
      <point x="389" y="915"/>
      <point x="453" y="915" type="qcurve"/>
      <point x="485" y="915"/>
      <point x="500" y="862" type="qcurve"/>
      <point x="504" y="844"/>
      <point x="516" y="799" type="qcurve"/>
      <point x="535" y="739"/>
      <point x="582" y="586" type="qcurve"/>
      <point x="621" y="653"/>
      <point x="780" y="838" type="qcurve"/>
      <point x="788" y="854"/>
      <point x="815" y="891" type="qcurve"/>
      <point x="827" y="911"/>
      <point x="852" y="911" type="qcurve"/>
      <point x="905" y="911"/>
    </contour>
  </outline>
</glyph>
<glyph name="endash" format="2">
  <advance width="1280"/>
  <unicode hex="2013"/>
  <outline>
    <contour>
      <point x="1075" y="567" type="line"/>
      <point x="205" y="567" type="line"/>
      <point x="205" y="666" type="line"/>
      <point x="1075" y="666" type="line"/>
    </contour>
  </outline>
</glyph>
<glyph name="H18543" format="2">
  <advance width="1452"/>
  <unicode hex="25AA"/>
  <outline>
    <contour>
      <point x="1214" y="819" type="line"/>
      <point x="991" y="248" type="line"/>
      <point x="319" y="248" type="line"/>
      <point x="543" y="819" type="line"/>
    </contour>
  </outline>
</glyph>
<glyph name="blackstar" format="2">
  <advance width="1819"/>
  <unicode hex="2605"/>
  <outline>
    <contour>
      <point x="1634" y="764" type="line"/>
      <point x="1192" y="524" type="line"/>
      <point x="1243" y="129" type="line"/>
      <point x="913" y="381" type="line"/>
      <point x="467" y="156" type="line"/>
      <point x="711" y="535" type="line"/>
      <point x="385" y="786" type="line"/>
      <point x="864" y="786" type="line"/>
      <point x="1112" y="1157" type="line"/>
      <point x="1161" y="764" type="line"/>
    </contour>
  </outline>
</glyph>
<glyph name="dblanglebracketleft" format="2">
  <advance width="1100"/>
  <unicode hex="300A"/>
  <outline>
    <contour>
      <point x="1002" y="17" type="line"/>
      <point x="935" y="233"/>
      <point x="866" y="458"/>
      <point x="800" y="674" type="curve"/>
      <point x="952" y="893"/>
      <point x="1105" y="1112"/>
      <point x="1257" y="1332" type="curve"/>
      <point x="1237" y="1343"/>
      <point x="1216" y="1353"/>
      <point x="1196" y="1365" type="curve"/>
      <point x="715" y="674" type="line"/>
      <point x="928" y="-15" type="line"/>
    </contour>
    <contour>
      <point x="707" y="17" type="curve"/>
      <point x="640" y="233"/>
      <point x="571" y="458"/>
      <point x="505" y="674" type="curve"/>
      <point x="962" y="1332" type="line"/>
      <point x="942" y="1343"/>
      <point x="921" y="1353"/>
      <point x="901" y="1365" type="curve"/>
      <point x="420" y="674" type="line"/>
      <point x="633" y="-15" type="line"/>
      <point x="657" y="-4"/>
      <point x="682" y="6"/>
    </contour>
  </outline>
</glyph>
<glyph name="uniA4D0" format="2">
  <advance width="1006"/>
  <unicode hex="A4D0"/>
  <outline>
    <contour>
      <point x="999" y="897" type="qcurve"/>
      <point x="999" y="719"/>
      <point x="725" y="598" type="qcurve"/>
      <point x="698" y="549" type="line"/>
      <point x="821" y="477"/>
      <point x="821" y="336" type="qcurve"/>
      <point x="821" y="182"/>
      <point x="643" y="74" type="qcurve"/>
      <point x="487" y="-20"/>
      <point x="324" y="-20" type="qcurve"/>
      <point x="115" y="-20"/>
      <point x="115" y="98" type="qcurve"/>
      <point x="115" y="119"/>
      <point x="123" y="158" type="qcurve"/>
      <point x="154" y="307"/>
      <point x="258" y="575" type="qcurve"/>
      <point x="365" y="856"/>
      <point x="397" y="993" type="qcurve"/>
      <point x="231" y="932" type="line"/>
      <point x="215" y="930"/>
      <point x="215" y="948" type="qcurve"/>
      <point x="215" y="1063"/>
      <point x="375" y="1114" type="qcurve"/>
      <point x="481" y="1149"/>
      <point x="629" y="1149" type="qcurve"/>
      <point x="756" y="1149"/>
      <point x="866" y="1087" type="qcurve"/>
      <point x="999" y="1014"/>
    </contour>
    <contour>
      <point x="831" y="879" type="qcurve"/>
      <point x="831" y="950"/>
      <point x="754" y="993" type="qcurve"/>
      <point x="688" y="1030"/>
      <point x="610" y="1030" type="qcurve"/>
      <point x="578" y="1030"/>
      <point x="446" y="999" type="qcurve"/>
      <point x="555" y="950"/>
      <point x="555" y="944" type="qcurve"/>
      <point x="555" y="934"/>
      <point x="532" y="893" type="qcurve"/>
      <point x="444" y="731"/>
      <point x="381" y="518" type="qcurve"/>
      <point x="344" y="389"/>
      <point x="270" y="129" type="qcurve"/>
      <point x="309" y="88"/>
      <point x="352" y="88" type="qcurve"/>
      <point x="467" y="88"/>
      <point x="662" y="250"/>
      <point x="662" y="362" type="qcurve"/>
      <point x="662" y="424"/>
      <point x="500" y="551"/>
      <point x="500" y="567" type="qcurve"/>
      <point x="500" y="633"/>
      <point x="586" y="674" type="qcurve"/>
      <point x="631" y="696"/>
      <point x="745" y="745" type="qcurve"/>
      <point x="831" y="797"/>
    </contour>
  </outline>
</glyph>
<glyph name="uniA4D1" format="2">
  <advance width="1040"/>
  <unicode hex="A4D1"/>
  <outline>
    <contour>
      <point x="1032" y="862" type="qcurve"/>
      <point x="1032" y="614"/>
      <point x="797" y="475" type="qcurve"/>
      <point x="623" y="373"/>
      <point x="338" y="340" type="qcurve"/>
      <point x="254" y="16"/>
      <point x="217" y="-6" type="qcurve"/>
      <point x="188" y="-25"/>
      <point x="156" y="-25" type="qcurve"/>
      <point x="135" y="-25"/>
      <point x="88" y="8"/>
      <point x="88" y="29" type="qcurve"/>
      <point x="88" y="86"/>
      <point x="135" y="186" type="qcurve"/>
      <point x="186" y="297"/>
      <point x="199" y="344" type="qcurve"/>
      <point x="145" y="373"/>
      <point x="145" y="414" type="qcurve"/>
      <point x="145" y="500"/>
      <point x="244" y="510" type="qcurve"/>
      <point x="338" y="745" type="line"/>
      <point x="383" y="874"/>
      <point x="393" y="993" type="qcurve"/>
      <point x="336" y="969"/>
      <point x="254" y="938" type="qcurve"/>
      <point x="215" y="940"/>
      <point x="215" y="979" type="qcurve"/>
      <point x="215" y="1069"/>
      <point x="383" y="1118" type="qcurve"/>
      <point x="500" y="1153"/>
      <point x="627" y="1153" type="qcurve"/>
      <point x="791" y="1153"/>
      <point x="899" y="1092" type="qcurve"/>
      <point x="1032" y="1016"/>
    </contour>
    <contour>
      <point x="897" y="840" type="qcurve"/>
      <point x="897" y="928"/>
      <point x="813" y="979" type="qcurve"/>
      <point x="741" y="1024"/>
      <point x="649" y="1024" type="qcurve"/>
      <point x="604" y="1024"/>
      <point x="481" y="1008" type="qcurve"/>
      <point x="543" y="938"/>
      <point x="543" y="928" type="qcurve"/>
      <point x="543" y="864"/>
      <point x="410" y="612"/>
      <point x="410" y="547" type="qcurve"/>
      <point x="410" y="532"/>
      <point x="414" y="473" type="qcurve"/>
      <point x="584" y="487"/>
      <point x="727" y="578" type="qcurve"/>
      <point x="897" y="684"/>
    </contour>
  </outline>
</glyph>
<glyph name="uniA4D2" format="2">
  <advance width="1034"/>
  <unicode hex="A4D2"/>
  <outline>
    <contour>
      <point x="985" y="1106" type="qcurve"/>
      <point x="985" y="1028"/>
      <point x="932" y="907" type="qcurve"/>
      <point x="854" y="733"/>
      <point x="850" y="713" type="qcurve"/>
      <point x="905" y="686"/>
      <point x="905" y="645" type="qcurve"/>
      <point x="905" y="557"/>
      <point x="807" y="551" type="qcurve"/>
      <point x="719" y="336"/>
      <point x="698" y="150" type="qcurve"/>
      <point x="788" y="176"/>
      <point x="836" y="201" type="qcurve"/>
      <point x="877" y="197"/>
      <point x="877" y="160" type="qcurve"/>
      <point x="877" y="70"/>
      <point x="711" y="20" type="qcurve"/>
      <point x="588" y="-16"/>
      <point x="469" y="-16" type="qcurve"/>
      <point x="307" y="-16"/>
      <point x="195" y="51" type="qcurve"/>
      <point x="61" y="131"/>
      <point x="61" y="283" type="qcurve"/>
      <point x="61" y="729"/>
      <point x="690" y="719" type="qcurve"/>
      <point x="709" y="791"/>
      <point x="766" y="944" type="qcurve"/>
      <point x="834" y="1126"/>
      <point x="858" y="1139" type="qcurve"/>
      <point x="891" y="1157"/>
      <point x="918" y="1157" type="qcurve"/>
      <point x="942" y="1157"/>
      <point x="985" y="1128"/>
    </contour>
    <contour>
      <point x="647" y="541" type="qcurve"/>
      <point x="647" y="567"/>
      <point x="627" y="590" type="qcurve"/>
      <point x="631" y="592"/>
      <point x="539" y="592" type="qcurve"/>
      <point x="496" y="592"/>
      <point x="416" y="559" type="qcurve"/>
      <point x="307" y="514"/>
      <point x="264" y="459" type="qcurve"/>
      <point x="217" y="397"/>
      <point x="217" y="285" type="qcurve"/>
      <point x="217" y="102"/>
      <point x="444" y="102" type="qcurve"/>
      <point x="467" y="102"/>
      <point x="641" y="135" type="qcurve"/>
      <point x="551" y="188"/>
      <point x="551" y="213" type="qcurve"/>
      <point x="551" y="276"/>
      <point x="647" y="530"/>
    </contour>
  </outline>
</glyph>
<glyph name="uniA4D5" format="2">
  <advance width="1075"/>
  <unicode hex="A4D5"/>
  <outline>
    <contour>
      <point x="936" y="80" type="qcurve"/>
      <point x="936" y="-10"/>
      <point x="834" y="-10" type="qcurve"/>
      <point x="819" y="-10"/>
      <point x="766" y="-6"/>
      <point x="752" y="-6" type="qcurve"/>
      <point x="616" y="-6" type="line"/>
      <point x="588" y="-6"/>
      <point x="537" y="-4" type="qcurve"/>
      <point x="498" y="-4"/>
      <point x="481" y="-4" type="qcurve"/>
      <point x="438" y="-4"/>
      <point x="342" y="-6" type="qcurve"/>
      <point x="227" y="-8"/>
      <point x="201" y="-8" type="qcurve"/>
      <point x="-20" y="-4"/>
      <point x="-20" y="41" type="qcurve"/>
      <point x="-20" y="135"/>
      <point x="145" y="135" type="qcurve"/>
      <point x="176" y="135"/>
      <point x="295" y="129"/>
      <point x="326" y="129" type="qcurve"/>
      <point x="336" y="129"/>
      <point x="475" y="133" type="qcurve"/>
      <point x="367" y="193"/>
      <point x="367" y="205" type="qcurve"/>
      <point x="367" y="217"/>
      <point x="451" y="453" type="qcurve"/>
      <point x="543" y="707"/>
      <point x="551" y="737" type="qcurve"/>
      <point x="623" y="983"/>
      <point x="664" y="1102" type="qcurve"/>
      <point x="684" y="1163"/>
      <point x="719" y="1163" type="qcurve"/>
      <point x="831" y="1163"/>
      <point x="831" y="1114" type="qcurve"/>
      <point x="831" y="983"/>
      <point x="698" y="627" type="qcurve"/>
      <point x="635" y="461"/>
      <point x="506" y="127" type="qcurve"/>
      <point x="741" y="135"/>
      <point x="887" y="135" type="qcurve"/>
      <point x="936" y="135"/>
    </contour>
  </outline>
</glyph>
<glyph name="uniA4D6" format="2">
  <advance width="1120"/>
  <unicode hex="A4D6"/>
  <outline>
    <contour>
      <point x="1096" y="934" type="qcurve"/>
      <point x="1096" y="887"/>
      <point x="1024" y="776"/>
      <point x="979" y="776" type="qcurve"/>
      <point x="930" y="776"/>
      <point x="897" y="834" type="qcurve"/>
      <point x="948" y="922"/>
      <point x="948" y="934" type="qcurve"/>
      <point x="948" y="971"/>
      <point x="885" y="1020"/>
      <point x="846" y="1020" type="qcurve"/>
      <point x="653" y="1020"/>
      <point x="582" y="983" type="qcurve"/>
      <point x="524" y="954"/>
      <point x="469" y="879" type="qcurve"/>
      <point x="350" y="721"/>
      <point x="303" y="614" type="qcurve"/>
      <point x="240" y="475"/>
      <point x="240" y="315" type="qcurve"/>
      <point x="240" y="229"/>
      <point x="350" y="117"/>
      <point x="436" y="117" type="qcurve"/>
      <point x="506" y="117" type="line"/>
      <point x="614" y="117"/>
      <point x="690" y="227" type="qcurve"/>
      <point x="758" y="326"/>
      <point x="760" y="442" type="qcurve"/>
      <point x="676" y="420"/>
      <point x="592" y="420" type="qcurve"/>
      <point x="545" y="420"/>
      <point x="545" y="453" type="qcurve"/>
      <point x="545" y="524"/>
      <point x="659" y="545" type="qcurve"/>
      <point x="707" y="553"/>
      <point x="831" y="553" type="qcurve"/>
      <point x="999" y="553"/>
      <point x="999" y="492" type="qcurve"/>
      <point x="999" y="438"/>
      <point x="856" y="444" type="qcurve"/>
      <point x="903" y="389"/>
      <point x="903" y="373" type="qcurve"/>
      <point x="903" y="238"/>
      <point x="614" y="-16"/>
      <point x="477" y="-16" type="qcurve"/>
      <point x="334" y="-16"/>
      <point x="217" y="61" type="qcurve"/>
      <point x="88" y="150"/>
      <point x="88" y="287" type="qcurve"/>
      <point x="88" y="518"/>
      <point x="203" y="741" type="qcurve"/>
      <point x="319" y="973"/>
      <point x="508" y="1096" type="qcurve"/>
      <point x="600" y="1155"/>
      <point x="866" y="1155" type="qcurve"/>
      <point x="973" y="1155"/>
      <point x="1096" y="1040"/>
    </contour>
  </outline>
</glyph>
<glyph name="uniA4D7" format="2">
  <advance width="1071"/>
  <unicode hex="A4D7"/>
  <outline>
    <contour>
      <point x="1104" y="1071" type="qcurve"/>
      <point x="1104" y="1042"/>
      <point x="1018" y="924" type="qcurve"/>
      <point x="750" y="551"/>
      <point x="498" y="475" type="qcurve"/>
      <point x="559" y="403"/>
      <point x="680" y="240" type="qcurve"/>
      <point x="823" y="45"/>
      <point x="823" y="8" type="qcurve"/>
      <point x="823" y="-37"/>
      <point x="770" y="-37" type="qcurve"/>
      <point x="696" y="-37"/>
      <point x="569" y="150" type="qcurve"/>
      <point x="418" y="373"/>
      <point x="385" y="399" type="qcurve"/>
      <point x="352" y="356"/>
      <point x="225" y="6"/>
      <point x="217" y="-2" type="qcurve"/>
      <point x="195" y="-23"/>
      <point x="172" y="-23" type="qcurve"/>
      <point x="92" y="-23"/>
      <point x="92" y="18" type="qcurve"/>
      <point x="92" y="100"/>
      <point x="143" y="223" type="qcurve"/>
      <point x="172" y="289"/>
      <point x="229" y="422" type="qcurve"/>
      <point x="160" y="453"/>
      <point x="160" y="481" type="qcurve"/>
      <point x="160" y="567"/>
      <point x="266" y="557" type="qcurve"/>
      <point x="307" y="745"/>
      <point x="336" y="852" type="qcurve"/>
      <point x="375" y="993"/>
      <point x="387" y="1026" type="qcurve"/>
      <point x="436" y="1147"/>
      <point x="504" y="1147" type="qcurve"/>
      <point x="567" y="1147"/>
      <point x="567" y="1094" type="qcurve"/>
      <point x="567" y="1014"/>
      <point x="510" y="846" type="qcurve"/>
      <point x="436" y="633"/>
      <point x="426" y="588" type="qcurve"/>
      <point x="588" y="637"/>
      <point x="725" y="772" type="qcurve"/>
      <point x="854" y="897"/>
      <point x="930" y="1063" type="qcurve"/>
      <point x="944" y="1094"/>
      <point x="967" y="1128" type="qcurve"/>
      <point x="989" y="1153"/>
      <point x="1022" y="1153" type="qcurve"/>
      <point x="1104" y="1153"/>
    </contour>
  </outline>
</glyph>
<glyph name="uniA4D9" format="2">
  <advance width="940"/>
  <unicode hex="A4D9"/>
  <outline>
    <contour>
      <point x="930" y="1096" type="qcurve"/>
      <point x="930" y="997"/>
      <point x="791" y="614" type="qcurve"/>
      <point x="664" y="264"/>
      <point x="592" y="133" type="qcurve"/>
      <point x="510" y="-18"/>
      <point x="391" y="-18" type="qcurve"/>
      <point x="61" y="-18"/>
      <point x="61" y="182" type="qcurve"/>
      <point x="61" y="375"/>
      <point x="209" y="375" type="qcurve"/>
      <point x="231" y="375"/>
      <point x="244" y="369" type="qcurve"/>
      <point x="242" y="344"/>
      <point x="186" y="221" type="qcurve"/>
      <point x="207" y="98"/>
      <point x="356" y="98" type="qcurve"/>
      <point x="457" y="98"/>
      <point x="541" y="338" type="qcurve"/>
      <point x="559" y="391"/>
      <point x="668" y="805" type="qcurve"/>
      <point x="739" y="1075"/>
      <point x="795" y="1120" type="qcurve"/>
      <point x="831" y="1149"/>
      <point x="864" y="1149" type="qcurve"/>
      <point x="930" y="1149"/>
    </contour>
  </outline>
</glyph>
<glyph name="uniA4DB" format="2">
  <advance width="1085"/>
  <unicode hex="A4DB"/>
  <outline>
    <contour>
      <point x="1032" y="836" type="qcurve"/>
      <point x="1032" y="547"/>
      <point x="846" y="279" type="qcurve"/>
      <point x="639" y="-18"/>
      <point x="365" y="-18" type="qcurve"/>
      <point x="238" y="-18"/>
      <point x="72" y="137"/>
      <point x="72" y="264" type="qcurve"/>
      <point x="72" y="315"/>
      <point x="131" y="391"/>
      <point x="180" y="391" type="qcurve"/>
      <point x="248" y="391"/>
      <point x="256" y="338" type="qcurve"/>
      <point x="242" y="289"/>
      <point x="242" y="219" type="qcurve"/>
      <point x="242" y="168"/>
      <point x="317" y="115"/>
      <point x="369" y="115" type="qcurve"/>
      <point x="563" y="115"/>
      <point x="729" y="401" type="qcurve"/>
      <point x="877" y="657"/>
      <point x="877" y="870" type="qcurve"/>
      <point x="877" y="1036"/>
      <point x="733" y="1036" type="qcurve"/>
      <point x="569" y="1036"/>
      <point x="395" y="840" type="qcurve"/>
      <point x="383" y="825"/>
      <point x="362" y="807" type="qcurve"/>
      <point x="348" y="797"/>
      <point x="322" y="797" type="qcurve"/>
      <point x="293" y="797"/>
      <point x="244" y="834"/>
      <point x="244" y="860" type="qcurve"/>
      <point x="244" y="868"/>
      <point x="272" y="909" type="qcurve"/>
      <point x="340" y="1006" type="line"/>
      <point x="391" y="1079"/>
      <point x="539" y="1124" type="qcurve"/>
      <point x="662" y="1161"/>
      <point x="774" y="1161" type="qcurve"/>
      <point x="907" y="1161"/>
      <point x="975" y="1061" type="qcurve"/>
      <point x="1032" y="975"/>
    </contour>
  </outline>
</glyph>
<glyph name="uniA4DF" format="2">
  <advance width="1436"/>
  <unicode hex="A4DF"/>
  <outline>
    <contour>
      <point x="1370" y="1038" type="qcurve"/>
      <point x="1370" y="811"/>
      <point x="1300" y="569" type="qcurve"/>
      <point x="1157" y="70"/>
      <point x="1108" y="18" type="qcurve"/>
      <point x="1073" y="-18"/>
      <point x="1044" y="-18" type="qcurve"/>
      <point x="952" y="-18"/>
      <point x="952" y="16" type="qcurve"/>
      <point x="952" y="78"/>
      <point x="1047" y="266" type="qcurve"/>
      <point x="1214" y="705"/>
      <point x="1214" y="973" type="qcurve"/>
      <point x="1141" y="813"/>
      <point x="1032" y="666" type="qcurve"/>
      <point x="907" y="496"/>
      <point x="782" y="416" type="qcurve"/>
      <point x="731" y="383"/>
      <point x="711" y="383" type="qcurve"/>
      <point x="657" y="383"/>
      <point x="623" y="496" type="qcurve"/>
      <point x="602" y="567"/>
      <point x="541" y="754" type="qcurve"/>
      <point x="532" y="776"/>
      <point x="477" y="911" type="qcurve"/>
      <point x="453" y="819"/>
      <point x="326" y="428" type="qcurve"/>
      <point x="193" y="14"/>
      <point x="180" y="6" type="qcurve"/>
      <point x="160" y="-6"/>
      <point x="119" y="-6" type="qcurve"/>
      <point x="47" y="-6"/>
      <point x="47" y="63" type="qcurve"/>
      <point x="47" y="133"/>
      <point x="84" y="223" type="qcurve"/>
      <point x="106" y="274"/>
      <point x="150" y="379" type="qcurve"/>
      <point x="195" y="522"/>
      <point x="291" y="805" type="qcurve"/>
      <point x="412" y="1139"/>
      <point x="504" y="1139" type="qcurve"/>
      <point x="541" y="1139"/>
      <point x="575" y="1122" type="qcurve"/>
      <point x="621" y="1104"/>
      <point x="621" y="1071" type="qcurve"/>
      <point x="621" y="1061"/>
      <point x="608" y="1024"/>
      <point x="608" y="1016" type="qcurve"/>
      <point x="608" y="997"/>
      <point x="641" y="940"/>
      <point x="643" y="930" type="qcurve"/>
      <point x="649" y="889"/>
      <point x="670" y="782" type="qcurve"/>
      <point x="672" y="772"/>
      <point x="750" y="547" type="qcurve"/>
      <point x="842" y="633"/>
      <point x="864" y="655" type="qcurve"/>
      <point x="928" y="719"/>
      <point x="1010" y="840"/>
      <point x="1071" y="946" type="qcurve"/>
      <point x="1149" y="1079" type="line"/>
      <point x="1206" y="1159"/>
      <point x="1268" y="1159" type="qcurve"/>
      <point x="1329" y="1159"/>
      <point x="1370" y="1104"/>
    </contour>
  </outline>
</glyph>
<glyph name="uniA4E0" format="2">
  <advance width="1157"/>
  <unicode hex="A4E0"/>
  <outline>
    <contour>
      <point x="1153" y="1108" type="qcurve"/>
      <point x="1153" y="1063"/>
      <point x="1114" y="967" type="qcurve"/>
      <point x="1085" y="897"/>
      <point x="1055" y="827" type="qcurve"/>
      <point x="1032" y="748"/>
      <point x="969" y="543" type="qcurve"/>
      <point x="924" y="410"/>
      <point x="866" y="178"/>
      <point x="854" y="135" type="qcurve"/>
      <point x="817" y="2"/>
      <point x="778" y="-29"/>
      <point x="725" y="-29" type="qcurve"/>
      <point x="692" y="-29"/>
      <point x="664" y="2" type="qcurve"/>
      <point x="649" y="18"/>
      <point x="578" y="453" type="qcurve"/>
      <point x="516" y="829"/>
      <point x="498" y="965" type="qcurve"/>
      <point x="375" y="647"/>
      <point x="279" y="354" type="qcurve"/>
      <point x="250" y="258"/>
      <point x="176" y="8" type="qcurve"/>
      <point x="154" y="-10"/>
      <point x="129" y="-10" type="qcurve"/>
      <point x="104" y="-10"/>
      <point x="49" y="20"/>
      <point x="49" y="45" type="qcurve"/>
      <point x="49" y="176"/>
      <point x="127" y="377" type="qcurve"/>
      <point x="166" y="469"/>
      <point x="256" y="713" type="qcurve"/>
      <point x="274" y="780"/>
      <point x="354" y="1047"/>
      <point x="440" y="1141"/>
      <point x="485" y="1141" type="qcurve"/>
      <point x="555" y="1141"/>
      <point x="590" y="1118" type="qcurve"/>
      <point x="608" y="1106"/>
      <point x="678" y="686" type="qcurve"/>
      <point x="733" y="356"/>
      <point x="754" y="190" type="qcurve"/>
      <point x="770" y="336"/>
      <point x="858" y="688" type="qcurve"/>
      <point x="958" y="1090"/>
      <point x="1014" y="1130" type="qcurve"/>
      <point x="1042" y="1151"/>
      <point x="1079" y="1151" type="qcurve"/>
      <point x="1153" y="1151"/>
    </contour>
  </outline>
</glyph>
<glyph name="uniA4E1" format="2">
  <advance width="956"/>
  <unicode hex="A4E1"/>
  <outline>
    <contour>
      <point x="795" y="86" type="qcurve"/>
      <point x="795" y="55"/>
      <point x="698" y="0"/>
      <point x="666" y="0" type="qcurve"/>
      <point x="225" y="0" type="line"/>
      <point x="86" y="0"/>
      <point x="86" y="86" type="qcurve"/>
      <point x="86" y="100"/>
      <point x="147" y="256" type="qcurve"/>
      <point x="186" y="356"/>
      <point x="285" y="655" type="qcurve"/>
      <point x="367" y="907"/>
      <point x="432" y="1049" type="qcurve"/>
      <point x="481" y="1153"/>
      <point x="535" y="1153" type="qcurve"/>
      <point x="618" y="1153"/>
      <point x="618" y="1114" type="qcurve"/>
      <point x="618" y="1040"/>
      <point x="545" y="862" type="qcurve"/>
      <point x="489" y="735"/>
      <point x="381" y="483" type="qcurve"/>
      <point x="266" y="215"/>
      <point x="266" y="117" type="qcurve"/>
      <point x="266" y="106" type="line"/>
      <point x="315" y="106" type="line"/>
      <point x="387" y="106"/>
      <point x="674" y="156"/>
      <point x="745" y="156" type="qcurve"/>
      <point x="795" y="156"/>
    </contour>
  </outline>
</glyph>
<glyph name="uniA4E2" format="2">
  <advance width="1055"/>
  <unicode hex="A4E2"/>
  <outline>
    <contour>
      <point x="1049" y="1085" type="qcurve"/>
      <point x="1049" y="1001"/>
      <point x="1006" y="936" type="qcurve"/>
      <point x="954" y="862"/>
      <point x="874" y="862" type="qcurve"/>
      <point x="840" y="862"/>
      <point x="840" y="885" type="qcurve"/>
      <point x="840" y="915"/>
      <point x="891" y="1036"/>
      <point x="895" y="1061" type="qcurve"/>
      <point x="817" y="1010" type="line"/>
      <point x="719" y="997"/>
      <point x="596" y="932" type="qcurve"/>
      <point x="449" y="854"/>
      <point x="449" y="774" type="qcurve"/>
      <point x="449" y="727"/>
      <point x="557" y="662" type="qcurve"/>
      <point x="555" y="672" type="line"/>
      <point x="694" y="594"/>
      <point x="743" y="557" type="qcurve"/>
      <point x="852" y="473"/>
      <point x="852" y="379" type="qcurve"/>
      <point x="852" y="197"/>
      <point x="659" y="80" type="qcurve"/>
      <point x="496" y="-20"/>
      <point x="303" y="-20" type="qcurve"/>
      <point x="201" y="-20"/>
      <point x="133" y="31" type="qcurve"/>
      <point x="59" y="86"/>
      <point x="59" y="184" type="qcurve"/>
      <point x="59" y="225"/>
      <point x="121" y="285"/>
      <point x="162" y="285" type="qcurve"/>
      <point x="221" y="285"/>
      <point x="221" y="242" type="qcurve"/>
      <point x="221" y="229"/>
      <point x="209" y="176"/>
      <point x="209" y="164" type="qcurve"/>
      <point x="209" y="125"/>
      <point x="272" y="78"/>
      <point x="311" y="78" type="qcurve"/>
      <point x="422" y="78"/>
      <point x="545" y="158" type="qcurve"/>
      <point x="682" y="244"/>
      <point x="682" y="348" type="qcurve"/>
      <point x="682" y="432"/>
      <point x="571" y="496" type="qcurve"/>
      <point x="504" y="530"/>
      <point x="369" y="604" type="qcurve"/>
      <point x="260" y="666"/>
      <point x="260" y="745" type="qcurve"/>
      <point x="260" y="770"/>
      <point x="287" y="836" type="qcurve"/>
      <point x="340" y="963"/>
      <point x="563" y="1065" type="qcurve"/>
      <point x="766" y="1157"/>
      <point x="924" y="1157" type="qcurve"/>
      <point x="1049" y="1157"/>
    </contour>
  </outline>
</glyph>
<glyph name="uniA4E3" format="2">
  <advance width="1057"/>
  <unicode hex="A4E3"/>
  <outline>
    <contour>
      <point x="1022" y="864" type="qcurve"/>
      <point x="1022" y="690"/>
      <point x="862" y="571" type="qcurve"/>
      <point x="733" y="475"/>
      <point x="541" y="438" type="qcurve"/>
      <point x="590" y="348"/>
      <point x="698" y="221" type="qcurve"/>
      <point x="829" y="68"/>
      <point x="864" y="12" type="qcurve"/>
      <point x="864" y="-12"/>
      <point x="821" y="-31" type="qcurve"/>
      <point x="788" y="-45"/>
      <point x="758" y="-45" type="qcurve"/>
      <point x="723" y="-45"/>
      <point x="647" y="70" type="qcurve"/>
      <point x="596" y="145"/>
      <point x="578" y="166" type="qcurve"/>
      <point x="457" y="301" type="line"/>
      <point x="391" y="381"/>
      <point x="352" y="451" type="qcurve"/>
      <point x="279" y="295"/>
      <point x="252" y="207" type="qcurve"/>
      <point x="242" y="129"/>
      <point x="219" y="39" type="qcurve"/>
      <point x="209" y="-4"/>
      <point x="137" y="-4" type="qcurve"/>
      <point x="53" y="-4"/>
      <point x="53" y="31" type="qcurve"/>
      <point x="53" y="111"/>
      <point x="219" y="535" type="qcurve"/>
      <point x="334" y="825"/>
      <point x="438" y="1067" type="qcurve"/>
      <point x="289" y="897"/>
      <point x="270" y="897" type="qcurve"/>
      <point x="213" y="897"/>
      <point x="213" y="969" type="qcurve"/>
      <point x="213" y="1077"/>
      <point x="367" y="1126" type="qcurve"/>
      <point x="469" y="1159"/>
      <point x="610" y="1159" type="qcurve"/>
      <point x="780" y="1159"/>
      <point x="889" y="1098" type="qcurve"/>
      <point x="1022" y="1022"/>
    </contour>
    <contour>
      <point x="877" y="852" type="qcurve"/>
      <point x="877" y="940"/>
      <point x="788" y="993" type="qcurve"/>
      <point x="715" y="1038"/>
      <point x="621" y="1038" type="qcurve"/>
      <point x="563" y="1038"/>
      <point x="430" y="1008" type="qcurve"/>
      <point x="539" y="963"/>
      <point x="539" y="942" type="qcurve"/>
      <point x="539" y="901"/>
      <point x="512" y="840" type="qcurve"/>
      <point x="487" y="791"/>
      <point x="463" y="741" type="qcurve"/>
      <point x="403" y="610"/>
      <point x="373" y="428" type="qcurve"/>
      <point x="422" y="494"/>
      <point x="526" y="563" type="qcurve"/>
      <point x="657" y="571"/>
      <point x="760" y="645" type="qcurve"/>
      <point x="877" y="727"/>
    </contour>
  </outline>
</glyph>
<glyph name="uniA4E5" format="2">
  <advance width="1030"/>
  <unicode hex="A4E5"/>
  <outline>
    <contour>
      <point x="881" y="580" type="line"/>
      <point x="881" y="41"/>
      <point x="831" y="-2" type="qcurve"/>
      <point x="811" y="-20"/>
      <point x="776" y="-20" type="qcurve"/>
      <point x="745" y="-20"/>
      <point x="678" y="20"/>
      <point x="678" y="49" type="qcurve"/>
      <point x="678" y="100"/>
      <point x="711" y="588" type="qcurve"/>
      <point x="719" y="717"/>
      <point x="727" y="983" type="qcurve"/>
      <point x="659" y="862"/>
      <point x="489" y="621" type="qcurve"/>
      <point x="326" y="389"/>
      <point x="260" y="254" type="qcurve"/>
      <point x="195" y="119" type="line"/>
      <point x="158" y="43"/>
      <point x="115" y="-10" type="qcurve"/>
      <point x="106" y="-12"/>
      <point x="96" y="-12" type="qcurve"/>
      <point x="-6" y="-12"/>
      <point x="-6" y="59" type="qcurve"/>
      <point x="-6" y="104"/>
      <point x="596" y="1061"/>
      <point x="717" y="1165"/>
      <point x="784" y="1165" type="qcurve"/>
      <point x="879" y="1165"/>
      <point x="879" y="1034" type="qcurve"/>
      <point x="879" y="1008"/>
      <point x="879" y="940" type="qcurve"/>
      <point x="881" y="854"/>
      <point x="881" y="807" type="qcurve"/>
    </contour>
  </outline>
</glyph>
<glyph name="uniA4E6" format="2">
  <advance width="1067"/>
  <unicode hex="A4E6"/>
  <outline>
    <contour>
      <point x="1139" y="1094" type="qcurve"/>
      <point x="1139" y="1051"/>
      <point x="506" y="111"/>
      <point x="432" y="35" type="qcurve"/>
      <point x="381" y="-16"/>
      <point x="334" y="-16" type="qcurve"/>
      <point x="268" y="-16"/>
      <point x="246" y="49" type="qcurve"/>
      <point x="233" y="86"/>
      <point x="233" y="170" type="qcurve"/>
      <point x="233" y="1049"/>
      <point x="299" y="1120" type="qcurve"/>
      <point x="319" y="1143"/>
      <point x="342" y="1143" type="qcurve"/>
      <point x="379" y="1143"/>
      <point x="442" y="1104"/>
      <point x="442" y="1069" type="qcurve"/>
      <point x="442" y="1047"/>
      <point x="406" y="786" type="qcurve"/>
      <point x="383" y="627"/>
      <point x="383" y="500" type="qcurve"/>
      <point x="383" y="444"/>
      <point x="389" y="219"/>
      <point x="389" y="164" type="qcurve"/>
      <point x="461" y="295"/>
      <point x="573" y="467" type="qcurve"/>
      <point x="698" y="657"/>
      <point x="831" y="872"/>
      <point x="1004" y="1157" type="qcurve"/>
      <point x="1020" y="1167"/>
      <point x="1040" y="1167" type="qcurve"/>
      <point x="1077" y="1167"/>
      <point x="1139" y="1128"/>
    </contour>
  </outline>
</glyph>
<glyph name="uniA4E8" format="2">
  <advance width="1030"/>
  <unicode hex="A4E8"/>
  <outline>
    <contour>
      <point x="983" y="848" type="qcurve"/>
      <point x="983" y="575"/>
      <point x="805" y="295" type="qcurve"/>
      <point x="606" y="-18"/>
      <point x="348" y="-18" type="qcurve"/>
      <point x="240" y="-18"/>
      <point x="158" y="39" type="qcurve"/>
      <point x="66" y="102"/>
      <point x="66" y="205" type="qcurve"/>
      <point x="66" y="260"/>
      <point x="86" y="305" type="qcurve"/>
      <point x="113" y="362"/>
      <point x="162" y="362" type="qcurve"/>
      <point x="246" y="362"/>
      <point x="246" y="311" type="qcurve"/>
      <point x="246" y="297"/>
      <point x="207" y="238"/>
      <point x="207" y="213" type="qcurve"/>
      <point x="207" y="162"/>
      <point x="297" y="100"/>
      <point x="350" y="100" type="qcurve"/>
      <point x="473" y="100"/>
      <point x="598" y="258" type="qcurve"/>
      <point x="831" y="555"/>
      <point x="831" y="893" type="qcurve"/>
      <point x="831" y="1030"/>
      <point x="707" y="1030" type="qcurve"/>
      <point x="508" y="1030"/>
      <point x="449" y="719" type="qcurve"/>
      <point x="477" y="719"/>
      <point x="588" y="729"/>
      <point x="616" y="729" type="qcurve"/>
      <point x="668" y="729"/>
      <point x="668" y="694" type="qcurve"/>
      <point x="668" y="657"/>
      <point x="651" y="639" type="qcurve"/>
      <point x="606" y="592"/>
      <point x="297" y="592" type="qcurve"/>
      <point x="121" y="592"/>
      <point x="121" y="649" type="qcurve"/>
      <point x="121" y="700"/>
      <point x="213" y="709" type="qcurve"/>
      <point x="344" y="709" type="line"/>
      <point x="305" y="758"/>
      <point x="305" y="776" type="qcurve"/>
      <point x="305" y="909"/>
      <point x="453" y="1040" type="qcurve"/>
      <point x="598" y="1165"/>
      <point x="733" y="1165" type="qcurve"/>
      <point x="887" y="1165"/>
      <point x="942" y="1077" type="qcurve"/>
      <point x="983" y="1012"/>
    </contour>
  </outline>
</glyph>
<glyph name="uniA4E9" format="2">
  <advance width="997"/>
  <unicode hex="A4E9"/>
  <outline>
    <contour>
      <point x="1030" y="928" type="qcurve"/>
      <point x="1030" y="793"/>
      <point x="944" y="793" type="qcurve"/>
      <point x="918" y="793"/>
      <point x="870" y="823"/>
      <point x="870" y="848" type="qcurve"/>
      <point x="870" y="864"/>
      <point x="887" y="924"/>
      <point x="887" y="940" type="qcurve"/>
      <point x="887" y="1026"/>
      <point x="694" y="1026" type="qcurve"/>
      <point x="580" y="1026"/>
      <point x="518" y="922" type="qcurve"/>
      <point x="467" y="834"/>
      <point x="403" y="586" type="qcurve"/>
      <point x="377" y="483"/>
      <point x="311" y="283" type="qcurve"/>
      <point x="233" y="47"/>
      <point x="180" y="-16"/>
      <point x="143" y="-16" type="qcurve"/>
      <point x="72" y="-16"/>
      <point x="72" y="31" type="qcurve"/>
      <point x="72" y="84"/>
      <point x="135" y="266" type="qcurve"/>
      <point x="166" y="348"/>
      <point x="223" y="516" type="qcurve"/>
      <point x="248" y="600"/>
      <point x="348" y="936"/>
      <point x="387" y="997" type="qcurve"/>
      <point x="487" y="1157"/>
      <point x="719" y="1157" type="qcurve"/>
      <point x="848" y="1157"/>
      <point x="930" y="1108" type="qcurve"/>
      <point x="1030" y="1049"/>
    </contour>
  </outline>
</glyph>
<glyph name="uniA4EA" format="2">
  <advance width="1360"/>
  <unicode hex="A4EA"/>
  <outline>
    <contour>
      <point x="1413" y="1112" type="qcurve"/>
      <point x="1413" y="1079"/>
      <point x="1174" y="578" type="qcurve"/>
      <point x="930" y="68"/>
      <point x="885" y="25" type="qcurve"/>
      <point x="850" y="-8"/>
      <point x="817" y="-8" type="qcurve"/>
      <point x="770" y="-8"/>
      <point x="760" y="43" type="qcurve"/>
      <point x="756" y="63"/>
      <point x="756" y="131" type="qcurve"/>
      <point x="735" y="131" type="line"/>
      <point x="750" y="125" type="line"/>
      <point x="756" y="129" type="line"/>
      <point x="760" y="150"/>
      <point x="743" y="154" type="qcurve"/>
      <point x="735" y="133" type="line"/>
      <point x="758" y="133" type="line"/>
      <point x="758" y="360"/>
      <point x="766" y="815" type="qcurve"/>
      <point x="698" y="659"/>
      <point x="559" y="348" type="qcurve"/>
      <point x="391" y="-8"/>
      <point x="281" y="-8" type="qcurve"/>
      <point x="205" y="-8"/>
      <point x="205" y="141" type="qcurve"/>
      <point x="205" y="680"/>
      <point x="279" y="1063" type="qcurve"/>
      <point x="295" y="1149"/>
      <point x="348" y="1149" type="qcurve"/>
      <point x="379" y="1149"/>
      <point x="408" y="1137" type="qcurve"/>
      <point x="446" y="1120"/>
      <point x="446" y="1096" type="qcurve"/>
      <point x="446" y="1018"/>
      <point x="414" y="815" type="qcurve"/>
      <point x="377" y="571"/>
      <point x="371" y="518" type="qcurve"/>
      <point x="334" y="166" type="line"/>
      <point x="453" y="440"/>
      <point x="512" y="571" type="qcurve"/>
      <point x="655" y="881"/>
      <point x="707" y="922" type="qcurve"/>
      <point x="748" y="954"/>
      <point x="791" y="954" type="qcurve"/>
      <point x="854" y="954"/>
      <point x="870" y="924" type="qcurve"/>
      <point x="883" y="901"/>
      <point x="883" y="838" type="qcurve"/>
      <point x="883" y="475"/>
      <point x="864" y="221" type="qcurve"/>
      <point x="936" y="365"/>
      <point x="1047" y="643" type="qcurve"/>
      <point x="1161" y="936"/>
      <point x="1223" y="1071" type="qcurve"/>
      <point x="1249" y="1128"/>
      <point x="1262" y="1143" type="qcurve"/>
      <point x="1290" y="1174"/>
      <point x="1337" y="1174" type="qcurve"/>
      <point x="1413" y="1174"/>
    </contour>
  </outline>
</glyph>
<glyph name="uniA4EC" format="2">
  <advance width="983"/>
  <unicode hex="A4EC"/>
  <outline>
    <contour>
      <point x="1077" y="1100" type="qcurve"/>
      <point x="1077" y="1032"/>
      <point x="930" y="866" type="qcurve"/>
      <point x="823" y="750"/>
      <point x="616" y="510"/>
      <point x="545" y="362" type="qcurve"/>
      <point x="459" y="190"/>
      <point x="416" y="49" type="qcurve"/>
      <point x="387" y="-41"/>
      <point x="330" y="-41" type="qcurve"/>
      <point x="299" y="-41"/>
      <point x="254" y="6"/>
      <point x="254" y="37" type="qcurve"/>
      <point x="254" y="80"/>
      <point x="326" y="250" type="qcurve"/>
      <point x="387" y="395"/>
      <point x="426" y="465" type="qcurve"/>
      <point x="414" y="520"/>
      <point x="305" y="799" type="qcurve"/>
      <point x="217" y="1024"/>
      <point x="217" y="1116" type="qcurve"/>
      <point x="217" y="1133"/>
      <point x="262" y="1145" type="qcurve"/>
      <point x="299" y="1155"/>
      <point x="322" y="1155" type="qcurve"/>
      <point x="346" y="1155"/>
      <point x="395" y="1094"/>
      <point x="408" y="1036"/>
      <point x="428" y="958" type="qcurve"/>
      <point x="459" y="860"/>
      <point x="539" y="606" type="qcurve"/>
      <point x="604" y="719"/>
      <point x="868" y="1026" type="qcurve"/>
      <point x="885" y="1051"/>
      <point x="926" y="1114" type="qcurve"/>
      <point x="948" y="1149"/>
      <point x="987" y="1149" type="qcurve"/>
      <point x="1077" y="1149"/>
    </contour>
  </outline>
</glyph>
<glyph name="uniA4ED" format="2">
  <advance width="1069"/>
  <unicode hex="A4ED"/>
  <outline>
    <contour>
      <point x="1032" y="1063" type="qcurve"/>
      <point x="795" y="457"/>
      <point x="721" y="133" type="qcurve"/>
      <point x="762" y="145"/>
      <point x="846" y="168" type="qcurve"/>
      <point x="846" y="147" type="line"/>
      <point x="846" y="55"/>
      <point x="692" y="10" type="qcurve"/>
      <point x="588" y="-20"/>
      <point x="463" y="-20" type="qcurve"/>
      <point x="338" y="-20"/>
      <point x="229" y="47" type="qcurve"/>
      <point x="102" y="125"/>
      <point x="102" y="242" type="qcurve"/>
      <point x="102" y="487"/>
      <point x="487" y="551" type="qcurve"/>
      <point x="285" y="649"/>
      <point x="285" y="807" type="qcurve"/>
      <point x="285" y="954"/>
      <point x="453" y="1061" type="qcurve"/>
      <point x="602" y="1155"/>
      <point x="758" y="1155" type="qcurve"/>
      <point x="918" y="1155"/>
      <point x="999" y="1118" type="qcurve"/>
      <point x="1030" y="1087"/>
    </contour>
    <contour>
      <point x="913" y="1092" type="qcurve"/>
      <point x="913" y="1110"/>
      <point x="897" y="1110" type="qcurve"/>
      <point x="866" y="1110"/>
      <point x="836" y="1036" type="qcurve"/>
      <point x="780" y="1038"/>
      <point x="762" y="1038" type="qcurve"/>
      <point x="639" y="1038"/>
      <point x="545" y="973" type="qcurve"/>
      <point x="442" y="899"/>
      <point x="442" y="780" type="qcurve"/>
      <point x="442" y="727"/>
      <point x="600" y="592"/>
      <point x="600" y="567" type="qcurve"/>
      <point x="600" y="510"/>
      <point x="500" y="459" type="qcurve"/>
      <point x="424" y="428"/>
      <point x="348" y="395" type="qcurve"/>
      <point x="258" y="346"/>
      <point x="258" y="260" type="qcurve"/>
      <point x="258" y="176"/>
      <point x="334" y="131" type="qcurve"/>
      <point x="397" y="94"/>
      <point x="487" y="94" type="qcurve"/>
      <point x="561" y="94"/>
      <point x="657" y="133" type="qcurve"/>
      <point x="612" y="188"/>
      <point x="612" y="252" type="qcurve"/>
      <point x="612" y="287"/>
      <point x="659" y="430" type="qcurve"/>
      <point x="682" y="496"/>
      <point x="727" y="625" type="qcurve"/>
      <point x="791" y="819"/>
      <point x="907" y="1069" type="qcurve"/>
      <point x="913" y="1081"/>
    </contour>
  </outline>
</glyph>
<glyph name="uniA4EE" format="2">
  <advance width="995"/>
  <unicode hex="A4EE"/>
  <outline>
    <contour>
      <point x="836" y="981" type="qcurve"/>
      <point x="836" y="836"/>
      <point x="819" y="254"/>
      <point x="819" y="109" type="qcurve"/>
      <point x="819" y="43"/>
      <point x="776" y="-10"/>
      <point x="711" y="-10" type="qcurve"/>
      <point x="635" y="-10"/>
      <point x="635" y="111" type="qcurve"/>
      <point x="635" y="287"/>
      <point x="678" y="373" type="qcurve"/>
      <point x="614" y="362"/>
      <point x="520" y="324" type="qcurve"/>
      <point x="451" y="295"/>
      <point x="389" y="291" type="qcurve"/>
      <point x="393" y="293"/>
      <point x="256" y="293" type="qcurve"/>
      <point x="156" y="25"/>
      <point x="119" y="4" type="qcurve"/>
      <point x="94" y="-10"/>
      <point x="72" y="-10" type="qcurve"/>
      <point x="47" y="-10"/>
      <point x="2" y="23"/>
      <point x="2" y="47" type="qcurve"/>
      <point x="2" y="131"/>
      <point x="106" y="305" type="qcurve"/>
      <point x="53" y="324"/>
      <point x="53" y="340" type="qcurve"/>
      <point x="53" y="389"/>
      <point x="139" y="467"/>
      <point x="188" y="465" type="qcurve"/>
      <point x="270" y="596"/>
      <point x="436" y="856" type="qcurve"/>
      <point x="639" y="1161"/>
      <point x="709" y="1161" type="qcurve"/>
      <point x="836" y="1161"/>
    </contour>
    <contour>
      <point x="725" y="913" type="qcurve"/>
      <point x="725" y="942"/>
      <point x="711" y="1016" type="qcurve"/>
      <point x="461" y="717"/>
      <point x="322" y="426" type="qcurve"/>
      <point x="367" y="422"/>
      <point x="387" y="422" type="qcurve"/>
      <point x="436" y="422"/>
      <point x="524" y="440" type="qcurve"/>
      <point x="625" y="463"/>
      <point x="662" y="467" type="qcurve"/>
      <point x="725" y="670"/>
    </contour>
  </outline>
</glyph>
<glyph name="uniA4EF" format="2">
  <advance width="1092"/>
  <unicode hex="A4EF"/>
  <outline>
    <contour>
      <point x="1139" y="1096" type="qcurve"/>
      <point x="1139" y="1020"/>
      <point x="1102" y="954" type="qcurve"/>
      <point x="1094" y="938"/>
      <point x="1026" y="829" type="qcurve"/>
      <point x="1071" y="803"/>
      <point x="1071" y="788" type="qcurve"/>
      <point x="1071" y="756"/>
      <point x="1053" y="723" type="qcurve"/>
      <point x="1032" y="684"/>
      <point x="1001" y="684" type="qcurve"/>
      <point x="983" y="684"/>
      <point x="946" y="690" type="qcurve"/>
      <point x="889" y="612"/>
      <point x="737" y="352" type="qcurve"/>
      <point x="614" y="141"/>
      <point x="508" y="33" type="qcurve"/>
      <point x="463" y="-12"/>
      <point x="416" y="-12" type="qcurve"/>
      <point x="309" y="-12"/>
      <point x="309" y="100" type="qcurve"/>
      <point x="309" y="555"/>
      <point x="324" y="971" type="qcurve"/>
      <point x="324" y="997"/>
      <point x="336" y="1133"/>
      <point x="362" y="1151" type="qcurve"/>
      <point x="379" y="1161"/>
      <point x="426" y="1161" type="qcurve"/>
      <point x="492" y="1161"/>
      <point x="492" y="1098" type="qcurve"/>
      <point x="492" y="946"/>
      <point x="449" y="819" type="qcurve"/>
      <point x="526" y="809"/>
      <point x="584" y="809" type="qcurve"/>
      <point x="618" y="809"/>
      <point x="713" y="815" type="qcurve"/>
      <point x="797" y="819"/>
      <point x="844" y="817" type="qcurve"/>
      <point x="872" y="872"/>
      <point x="930" y="983" type="qcurve"/>
      <point x="975" y="1065"/>
      <point x="991" y="1087" type="qcurve"/>
      <point x="1036" y="1143"/>
      <point x="1092" y="1143" type="qcurve"/>
      <point x="1139" y="1143"/>
    </contour>
    <contour>
      <point x="784" y="694" type="qcurve"/>
      <point x="768" y="696"/>
      <point x="694" y="721"/>
      <point x="674" y="721" type="qcurve"/>
      <point x="621" y="721"/>
      <point x="465" y="700" type="qcurve"/>
      <point x="461" y="643"/>
      <point x="446" y="483" type="qcurve"/>
      <point x="434" y="346"/>
      <point x="434" y="266" type="qcurve"/>
      <point x="434" y="248"/>
      <point x="436" y="166" type="qcurve"/>
      <point x="559" y="238"/>
      <point x="645" y="401" type="qcurve"/>
      <point x="692" y="500"/>
    </contour>
  </outline>
</glyph>
<glyph name="uniA4F3" format="2">
  <advance width="1030"/>
  <unicode hex="A4F3"/>
  <outline>
    <contour>
      <point x="989" y="844" type="qcurve"/>
      <point x="989" y="530"/>
      <point x="846" y="281" type="qcurve"/>
      <point x="674" y="-18"/>
      <point x="385" y="-18" type="qcurve"/>
      <point x="254" y="-18"/>
      <point x="96" y="150"/>
      <point x="96" y="281" type="qcurve"/>
      <point x="96" y="459"/>
      <point x="203" y="674" type="qcurve"/>
      <point x="303" y="877"/>
      <point x="440" y="1010" type="qcurve"/>
      <point x="606" y="1169"/>
      <point x="774" y="1169" type="qcurve"/>
      <point x="850" y="1169"/>
      <point x="850" y="1100" type="qcurve"/>
      <point x="850" y="1079"/>
      <point x="838" y="1047" type="qcurve"/>
      <point x="899" y="1049" type="line"/>
      <point x="989" y="1049"/>
    </contour>
    <contour>
      <point x="858" y="827" type="qcurve"/>
      <point x="858" y="971"/>
      <point x="778" y="1040" type="qcurve"/>
      <point x="549" y="1016"/>
      <point x="393" y="754" type="qcurve"/>
      <point x="256" y="524"/>
      <point x="256" y="274" type="qcurve"/>
      <point x="256" y="102"/>
      <point x="414" y="102" type="qcurve"/>
      <point x="608" y="102"/>
      <point x="743" y="377" type="qcurve"/>
      <point x="858" y="608"/>
    </contour>
  </outline>
</glyph>
<glyph name="uniA4F5" format="2">
  <advance width="1102"/>
  <unicode hex="A4F5"/>
  <outline>
    <contour>
      <point x="1077" y="932" type="qcurve"/>
      <point x="1077" y="784"/>
      <point x="991" y="496" type="qcurve"/>
      <point x="909" y="219"/>
      <point x="831" y="76" type="qcurve"/>
      <point x="786" y="-6"/>
      <point x="729" y="-6" type="qcurve"/>
      <point x="657" y="-6"/>
      <point x="657" y="51" type="qcurve"/>
      <point x="657" y="90"/>
      <point x="694" y="164" type="qcurve"/>
      <point x="715" y="201"/>
      <point x="752" y="274" type="qcurve"/>
      <point x="813" y="399"/>
      <point x="870" y="602" type="qcurve"/>
      <point x="932" y="815"/>
      <point x="932" y="942" type="qcurve"/>
      <point x="932" y="991"/>
      <point x="864" y="1024" type="qcurve"/>
      <point x="811" y="1051"/>
      <point x="754" y="1051" type="qcurve"/>
      <point x="637" y="1051"/>
      <point x="551" y="979" type="qcurve"/>
      <point x="512" y="946"/>
      <point x="401" y="664" type="qcurve"/>
      <point x="307" y="426"/>
      <point x="272" y="305" type="qcurve"/>
      <point x="270" y="301"/>
      <point x="238" y="156" type="qcurve"/>
      <point x="213" y="41"/>
      <point x="197" y="23" type="qcurve"/>
      <point x="174" y="-6"/>
      <point x="141" y="-6" type="qcurve"/>
      <point x="111" y="-6"/>
      <point x="76" y="10" type="qcurve"/>
      <point x="35" y="29"/>
      <point x="35" y="55" type="qcurve"/>
      <point x="35" y="164"/>
      <point x="135" y="418" type="qcurve"/>
      <point x="186" y="541"/>
      <point x="287" y="788" type="qcurve"/>
      <point x="440" y="1171"/>
      <point x="778" y="1171" type="qcurve"/>
      <point x="907" y="1171"/>
      <point x="985" y="1118" type="qcurve"/>
      <point x="1077" y="1055"/>
    </contour>
  </outline>
</glyph>
<glyph name="uniA4FC" format="2">
  <advance width="651"/>
  <unicode hex="A4FC"/>
  <outline>
    <contour>
      <point x="557" y="666" type="qcurve"/>
      <point x="557" y="600"/>
      <point x="489" y="553" type="qcurve"/>
      <point x="430" y="510"/>
      <point x="360" y="510" type="qcurve"/>
      <point x="319" y="510"/>
      <point x="242" y="561"/>
      <point x="242" y="600" type="qcurve"/>
      <point x="242" y="672"/>
      <point x="307" y="717" type="qcurve"/>
      <point x="365" y="758"/>
      <point x="438" y="758" type="qcurve"/>
      <point x="483" y="758"/>
      <point x="557" y="709"/>
    </contour>
    <contour>
      <point x="389" y="145" type="qcurve"/>
      <point x="389" y="14"/>
      <point x="244" y="-127" type="qcurve"/>
      <point x="125" y="-242"/>
      <point x="-20" y="-307" type="qcurve"/>
      <point x="12" y="-209" type="line"/>
      <point x="139" y="-145"/>
      <point x="240" y="12" type="qcurve"/>
      <point x="170" y="10"/>
      <point x="147" y="10" type="qcurve"/>
      <point x="102" y="10"/>
      <point x="74" y="35"/>
      <point x="74" y="78" type="qcurve"/>
      <point x="74" y="147"/>
      <point x="143" y="195" type="qcurve"/>
      <point x="205" y="238"/>
      <point x="279" y="238" type="qcurve"/>
      <point x="324" y="238"/>
      <point x="389" y="188"/>
    </contour>
  </outline>
</glyph>
<glyph name="uniA4FD" format="2">
  <advance width="629"/>
  <unicode hex="A4FD"/>
  <outline>
    <contour>
      <point x="537" y="674" type="qcurve"/>
      <point x="537" y="606"/>
      <point x="408" y="510"/>
      <point x="338" y="510" type="qcurve"/>
      <point x="293" y="510"/>
      <point x="260" y="535" type="qcurve"/>
      <point x="221" y="563"/>
      <point x="221" y="606" type="qcurve"/>
      <point x="221" y="676"/>
      <point x="287" y="721" type="qcurve"/>
      <point x="346" y="764"/>
      <point x="418" y="764" type="qcurve"/>
      <point x="461" y="764"/>
      <point x="537" y="715"/>
    </contour>
    <contour>
      <point x="377" y="150" type="qcurve"/>
      <point x="377" y="82"/>
      <point x="248" y="-12"/>
      <point x="178" y="-12" type="qcurve"/>
      <point x="135" y="-12"/>
      <point x="61" y="39"/>
      <point x="61" y="80" type="qcurve"/>
      <point x="61" y="150"/>
      <point x="127" y="197" type="qcurve"/>
      <point x="186" y="240"/>
      <point x="258" y="240" type="qcurve"/>
      <point x="301" y="240"/>
      <point x="377" y="190"/>
    </contour>
  </outline>
</glyph>
<glyph name="uniA4FF" format="2">
  <advance width="1157"/>
  <unicode hex="A4FF"/>
  <outline>
    <contour>
      <point x="1024" y="733" type="line"/>
      <point x="991" y="614" type="line"/>
      <point x="223" y="614" type="line"/>
      <point x="258" y="733" type="line"/>
    </contour>
    <contour>
      <point x="918" y="356" type="line"/>
      <point x="887" y="240" type="line"/>
      <point x="117" y="240" type="line"/>
      <point x="150" y="356" type="line"/>
    </contour>
  </outline>
</glyph>
